<?xml version="1.0" standalone="no"?>
<!DOCTYPE svg PUBLIC "-//W3C//DTD SVG 20010904//EN"
 "http://www.w3.org/TR/2001/REC-SVG-20010904/DTD/svg10.dtd">
<svg version="1.0" xmlns="http://www.w3.org/2000/svg"
 width="580.000000pt" height="386.000000pt" viewBox="0 0 580.000000 386.000000"
 preserveAspectRatio="xMidYMid meet">

<g transform="translate(0.000000,386.000000) scale(0.100000,-0.100000)"
fill="#ee3342" stroke="none">
<path d="M2978 2707 c-250 -172 -1004 -732 -1012 -751 -18 -48 -1 -68 156
-182 84 -61 320 -232 524 -381 204 -149 380 -274 392 -277 22 -7 61 8 74 28
16 23 8 73 -14 93 -13 11 -229 169 -480 352 -252 183 -458 337 -458 341 0 5
206 158 458 341 251 182 467 341 480 352 22 20 30 70 14 93 -8 13 -46 34 -61
34 -5 0 -38 -20 -73 -43z"/>
<path d="M3734 2733 c-18 -10 -260 -184 -538 -388 -352 -256 -508 -376 -512
-392 -4 -13 -4 -33 0 -46 4 -16 162 -137 526 -402 286 -209 532 -384 546 -389
30 -10 76 18 82 48 10 49 -8 64 -488 412 -263 192 -479 351 -479 354 0 3 214
160 475 350 262 190 480 353 485 362 17 31 10 66 -17 87 -32 25 -41 26 -80 4z"/>
</g>
</svg>
