<?xml version="1.0" standalone="no"?>
<!DOCTYPE svg PUBLIC "-//W3C//DTD SVG 20010904//EN"
 "http://www.w3.org/TR/2001/REC-SVG-20010904/DTD/svg10.dtd">
<svg version="1.0" xmlns="http://www.w3.org/2000/svg"
 width="7111.000000pt" height="4307.000000pt" viewBox="0 0 7111.000000 4307.000000"
 preserveAspectRatio="xMidYMid meet">

<g transform="translate(0.000000,4307.000000) scale(0.100000,-0.100000)"
fill="#ee3342" stroke="none">
<path d="M12980 43060 c-9431 -15 -11846 -46 -12460 -161 -169 -32 -271 -100
-324 -218 -130 -290 -164 -1284 -186 -5401 -13 -2387 -13 -29110 0 -31495 22
-4111 56 -5106 186 -5396 38 -83 122 -160 206 -188 371 -122 1878 -157 7903
-182 3800 -16 39131 -23 47865 -10 7227 11 9465 19 11240 41 2220 27 3034 65
3298 151 84 28 168 105 206 188 130 290 164 1287 186 5416 13 2384 13 29106 0
31475 -22 4169 -57 5148 -194 5417 -36 73 -122 147 -198 172 -371 122 -1874
157 -7893 182 -3026 13 -42713 20 -49835 9z m56180 -19445 l0 -17495 -532 0
c-293 0 -587 -5 -653 -10 -784 -66 -1107 -308 -1166 -874 -16 -146 -6 -349 20
-451 99 -380 418 -556 1096 -605 77 -5 386 -10 688 -10 l547 0 0 -1105 0
-1105 -33605 0 -33605 0 0 1105 0 1105 24603 0 c14203 0 25612 4 26992 10
7674 31 9332 106 9534 434 34 54 35 107 7 255 -16 83 -26 168 -26 226 0 126
-17 278 -40 371 -44 171 -131 287 -303 402 -147 98 -175 109 -297 121 -491 48
-2665 79 -7085 101 -4565 23 -11474 30 -31887 30 l-21498 0 0 17495 0 17495
33605 0 33605 0 0 -17495z"/>
<path d="M30290 40080 c-181 -14 -354 -62 -614 -171 -362 -152 -654 -341 -905
-584 -251 -244 -424 -503 -545 -817 -109 -283 -161 -555 -172 -903 -26 -774
223 -1434 722 -1915 189 -182 376 -312 619 -430 622 -303 1352 -350 2016 -130
743 247 1305 820 1565 1598 101 302 139 550 131 842 -19 672 -308 1344 -781
1815 -250 249 -503 398 -899 529 -279 93 -548 147 -829 166 -156 11 -168 11
-308 0z m359 -1915 c76 -27 155 -88 312 -245 280 -278 315 -367 219 -555 -61
-120 -146 -233 -217 -287 -125 -94 -252 -119 -479 -93 -232 26 -324 65 -379
160 -40 67 -53 122 -72 291 -21 189 -12 279 41 391 45 94 107 159 227 239 162
108 251 133 348 99z"/>
<path d="M40240 40069 c-519 -46 -1077 -316 -1477 -716 -517 -516 -797 -1258
-745 -1976 26 -371 104 -660 267 -992 243 -495 618 -872 1110 -1115 195 -96
312 -140 509 -190 216 -54 349 -72 593 -78 243 -5 382 6 593 48 646 129 1188
483 1549 1010 557 814 571 2055 33 2880 -483 741 -1497 1211 -2432 1129z m411
-1914 c84 -34 244 -142 302 -204 65 -70 114 -175 129 -279 10 -70 10 -108 -5
-236 -19 -169 -32 -224 -72 -291 -56 -96 -146 -134 -381 -161 -167 -19 -255
-12 -358 27 -126 47 -243 170 -336 354 -96 188 -61 277 219 555 255 254 349
298 502 235z"/>
<path d="M35300 37250 c-850 -81 -1567 -558 -1954 -1300 -275 -528 -373 -1152
-276 -1750 83 -506 304 -957 633 -1292 347 -353 875 -622 1400 -713 237 -40
593 -45 817 -10 983 153 1771 830 2053 1765 115 381 145 825 81 1205 -164 979
-915 1772 -1917 2026 -244 62 -599 91 -837 69z m403 -1976 c171 -38 310 -139
371 -268 117 -249 106 -489 -31 -662 -75 -94 -237 -197 -360 -229 -290 -76
-608 111 -714 419 -54 155 -46 310 23 456 63 131 223 249 388 284 89 20 236
19 323 0z"/>
<path d="M54840 37054 c-575 -32 -956 -79 -1460 -180 -2033 -405 -3926 -1304
-5495 -2609 -1190 -989 -2154 -2168 -2895 -3540 -495 -915 -902 -1996 -1114
-2960 -233 -1057 -311 -2304 -221 -3540 104 -1423 434 -2838 934 -4002 1135
-2647 3600 -5086 6306 -6243 789 -337 1728 -610 2629 -765 1947 -333 3964
-180 5834 444 1585 529 3011 1356 4258 2472 211 189 734 713 916 919 878 993
1551 2053 2061 3250 816 1913 1137 4046 917 6085 -354 3274 -2041 6234 -4700
8242 -901 680 -1880 1233 -2830 1598 -228 87 -684 239 -930 310 -916 264
-1831 425 -2840 501 -202 15 -1188 28 -1370 18z m1440 -2008 c850 -57 1477
-149 2000 -291 2002 -547 3892 -1847 5273 -3628 691 -891 1243 -1907 1591
-2927 267 -783 363 -1309 426 -2350 18 -281 24 -1079 11 -1395 -38 -955 -130
-1587 -307 -2120 -211 -637 -617 -1575 -934 -2160 -1046 -1932 -2812 -3526
-4885 -4410 -601 -256 -1342 -489 -1815 -569 -452 -77 -861 -96 -2050 -97
-1162 0 -1624 24 -2175 117 -705 118 -1410 375 -2350 858 -1833 941 -3345
2421 -4346 4251 -371 680 -692 1483 -873 2187 -180 701 -251 1485 -251 2778 0
526 4 685 18 860 102 1246 365 2135 1033 3480 511 1032 827 1457 1786 2405
643 637 1390 1275 1863 1592 452 303 1268 675 2080 950 861 290 1570 438 2320
482 239 14 1311 6 1585 -13z"/>
<path d="M55150 34434 c-19 -2 -98 -8 -175 -14 -726 -55 -1527 -224 -2295
-485 -1151 -391 -2149 -979 -3130 -1844 -342 -301 -822 -792 -1111 -1136
-1232 -1467 -2011 -3267 -2188 -5060 -45 -454 -52 -934 -16 -1175 71 -484 269
-731 650 -806 137 -28 420 -26 538 4 296 74 470 272 582 663 56 195 91 399
135 799 89 800 286 1598 570 2309 91 229 172 407 301 661 1014 2005 2803 3404
5044 3945 369 89 730 151 1165 200 823 92 1116 179 1309 391 107 117 213 303
246 429 19 77 19 234 0 310 -36 137 -104 265 -229 433 -120 160 -217 252 -318
301 -143 69 -179 74 -638 76 -223 2 -421 1 -440 -1z"/>
<path d="M55160 31830 c-1115 -104 -2182 -485 -3150 -1125 -1373 -908 -2412
-2244 -2910 -3744 -146 -440 -240 -867 -302 -1375 -30 -250 -33 -748 -4 -901
65 -355 198 -570 426 -689 142 -75 354 -114 560 -103 353 19 587 179 748 509
113 232 180 506 232 956 118 1018 501 1918 1150 2702 133 161 479 507 640 640
606 502 1288 850 2045 1045 218 56 360 83 732 140 1004 152 1148 221 1358 650
69 141 85 202 92 350 11 246 -68 452 -242 631 -163 167 -346 254 -630 300
-117 19 -594 28 -745 14z"/>
<path d="M55475 29283 c-112 -8 -373 -45 -519 -73 -587 -115 -1203 -386 -1715
-753 -357 -257 -734 -631 -992 -987 -238 -326 -416 -651 -563 -1022 -437
-1109 -428 -2330 26 -3393 495 -1159 1513 -2083 2741 -2489 283 -94 621 -166
949 -203 192 -21 684 -24 868 -5 905 94 1684 413 2363 968 151 123 439 403
565 549 253 294 512 668 664 961 394 759 520 2105 292 3122 -95 425 -330 947
-610 1355 -709 1034 -1850 1747 -3091 1932 -219 32 -415 45 -672 43 -141 -1
-278 -3 -306 -5z m546 -1943 c373 -37 785 -180 1144 -397 211 -128 461 -346
614 -536 405 -501 609 -1179 551 -1827 -87 -961 -656 -1751 -1523 -2114 -501
-210 -1040 -262 -1547 -150 -714 159 -1331 638 -1666 1297 -134 264 -214 518
-261 832 -27 185 -24 591 6 784 73 476 246 862 534 1196 304 353 774 652 1282
815 163 52 292 78 520 104 68 7 250 5 346 -4z"/>
<path d="M55720 25700 c-153 -22 -345 -95 -478 -184 -169 -112 -309 -323 -353
-531 -20 -95 -15 -275 10 -379 137 -569 776 -876 1306 -627 260 122 477 356
563 607 80 234 41 473 -113 689 -55 77 -182 199 -264 255 -195 131 -462 199
-671 170z"/>
<path d="M14680 37030 c-897 -40 -1575 -147 -2416 -385 -3558 -1005 -6475
-3580 -7894 -6967 -372 -887 -656 -1899 -784 -2800 -59 -412 -77 -707 -83
-1383 -7 -740 12 -1239 73 -1905 65 -721 153 -1228 300 -1743 530 -1852 1462
-3509 2775 -4932 1434 -1553 3294 -2728 5289 -3338 901 -276 1726 -427 2725
-499 239 -17 1266 -17 1545 0 1736 108 3054 462 4645 1247 1198 591 2177 1299
3125 2261 440 446 796 864 1152 1354 1285 1765 2075 3813 2293 5945 65 634 72
1440 19 2080 -206 2497 -1129 4791 -2698 6709 -315 385 -777 873 -1156 1221
-1149 1055 -2532 1891 -4020 2428 -1112 402 -2264 630 -3515 697 -264 15
-1127 20 -1375 10z m695 -1950 c940 -34 1947 -139 2509 -261 761 -166 1738
-581 2641 -1121 593 -355 1181 -787 1725 -1266 194 -171 658 -633 814 -812
1313 -1502 2146 -3418 2375 -5465 70 -626 80 -1355 26 -1995 -127 -1497 -591
-2952 -1348 -4230 -331 -558 -852 -1200 -1532 -1889 -806 -816 -1550 -1416
-2207 -1779 -1172 -648 -2486 -1057 -3833 -1191 -612 -62 -1283 -67 -1885 -16
-1080 93 -2161 361 -3145 780 -573 244 -1196 572 -1595 838 -482 322 -843 640
-1690 1494 -650 654 -892 934 -1154 1332 -255 388 -599 1056 -843 1641 -375
896 -624 1854 -732 2825 -70 626 -80 1347 -26 1985 123 1443 568 2878 1282
4130 972 1704 2396 3051 4152 3929 899 450 2113 827 3286 1020 350 57 647 70
1180 51z"/>
<path d="M15050 34444 c-527 -26 -1232 -142 -1807 -299 -1440 -391 -2765
-1119 -3938 -2164 -176 -156 -632 -613 -788 -788 -1278 -1438 -2083 -3112
-2332 -4847 -60 -419 -79 -735 -72 -1178 5 -332 17 -467 53 -625 82 -367 257
-559 569 -625 134 -29 440 -31 555 -5 165 38 318 141 410 277 152 225 252 590
335 1235 69 531 186 1133 311 1599 475 1770 1889 3532 3607 4495 68 38 228
121 354 185 896 448 1477 613 2768 785 549 74 725 106 920 168 240 77 371 172
495 361 71 107 119 214 145 324 22 92 19 258 -5 354 -42 168 -169 365 -308
480 -154 127 -389 212 -687 248 -124 15 -452 26 -585 20z"/>
<path d="M15185 31839 c-209 -19 -538 -60 -706 -89 -817 -142 -1605 -436
-2334 -873 -1382 -827 -2456 -2093 -3040 -3582 -261 -666 -435 -1478 -452
-2110 -11 -422 45 -711 182 -930 57 -92 180 -208 271 -257 219 -117 567 -141
819 -57 196 66 337 186 451 386 124 217 187 459 259 998 146 1078 536 1989
1184 2765 125 151 443 469 601 602 655 551 1383 908 2240 1097 74 16 259 50
410 76 656 110 1066 212 1219 302 143 85 264 260 315 457 115 442 -67 917
-421 1098 -186 96 -305 118 -643 123 -140 2 -300 -1 -355 -6z"/>
<path d="M15450 29284 c-101 -8 -384 -45 -490 -65 -153 -29 -404 -95 -559
-146 -803 -266 -1453 -659 -1976 -1194 -612 -626 -990 -1412 -1115 -2317 -59
-428 -61 -936 -4 -1377 201 -1576 1192 -2876 2662 -3495 398 -167 802 -271
1267 -327 211 -25 748 -25 957 0 822 98 1537 383 2188 873 501 377 912 836
1205 1344 637 1104 756 2497 321 3743 -254 727 -696 1382 -1261 1866 -689 592
-1533 968 -2415 1076 -130 16 -646 28 -780 19z m505 -1954 c307 -27 569 -97
830 -225 156 -76 279 -157 468 -309 540 -433 796 -828 930 -1436 77 -345 57
-740 -60 -1195 -131 -513 -343 -920 -600 -1151 -476 -428 -1287 -775 -1813
-775 -490 -1 -1283 299 -1690 639 -385 321 -676 916 -782 1597 -29 188 -36
580 -14 770 31 271 97 500 205 721 228 465 611 836 1116 1084 194 95 341 150
540 200 306 78 588 104 870 80z"/>
<path d="M15447 25660 c-232 -21 -332 -55 -422 -145 -144 -144 -227 -386 -229
-670 -1 -162 13 -253 59 -383 74 -205 197 -350 385 -450 304 -163 711 -144
1004 45 182 118 301 283 373 518 24 82 27 104 27 260 1 151 -2 178 -22 245
-44 139 -96 225 -202 330 -126 126 -250 192 -440 236 -79 18 -393 26 -533 14z"/>
<path d="M40240 34449 c-310 -32 -652 -133 -865 -255 -436 -252 -962 -821
-1181 -1278 -60 -125 -76 -178 -139 -461 -24 -110 -56 -242 -70 -294 -71 -263
8 -696 216 -1184 158 -371 347 -666 569 -887 406 -405 902 -653 1460 -732 141
-19 506 -17 650 5 549 84 1048 334 1430 717 516 516 770 1192 747 1985 -17
594 -154 992 -478 1395 -101 126 -312 339 -429 433 -391 315 -866 504 -1399
557 -120 12 -389 11 -511 -1z m485 -1955 c258 -62 407 -256 407 -530 0 -276
-181 -547 -427 -639 -182 -69 -342 -41 -494 85 -110 92 -212 257 -246 401 -20
85 -19 231 1 300 88 298 418 465 759 383z"/>
<path d="M30295 34434 c-400 -31 -654 -88 -845 -191 -442 -239 -986 -778
-1197 -1189 -112 -219 -186 -591 -200 -1014 -25 -761 238 -1452 747 -1960 201
-201 413 -352 675 -481 245 -120 481 -193 755 -236 159 -24 519 -24 681 0 448
67 867 252 1229 544 790 637 1144 1750 868 2738 -51 184 -138 392 -226 540
-253 426 -925 996 -1338 1134 -110 37 -300 76 -470 96 -122 15 -569 27 -679
19z m410 -1959 c208 -60 345 -156 412 -288 84 -168 81 -333 -9 -516 -34 -71
-59 -103 -137 -182 -79 -79 -111 -103 -181 -137 -104 -51 -183 -72 -270 -72
-169 0 -339 100 -410 240 -111 219 -134 633 -47 825 45 97 167 159 327 168 87
4 226 -12 315 -38z"/>
<path d="M30830 28196 c-121 -26 -270 -97 -392 -188 -220 -163 -448 -522 -448
-705 0 -48 -37 -119 -82 -158 -43 -37 -51 -39 -176 -55 -146 -19 -378 -96
-533 -177 -359 -186 -505 -609 -559 -1618 -26 -491 -22 -1592 10 -2645 39
-1248 124 -1683 375 -1918 128 -121 235 -164 660 -266 l300 -72 6 -3040 c8
-3387 14 -3770 65 -4151 34 -255 80 -360 219 -496 173 -170 329 -267 495 -308
71 -18 103 -21 200 -16 130 6 199 25 320 88 115 60 191 122 435 357 l225 217
0 3672 c0 3488 1 3672 18 3677 9 3 141 34 292 70 403 94 506 138 628 271 185
202 254 543 294 1445 18 404 18 3066 0 3425 -32 644 -84 916 -211 1103 -96
142 -226 212 -539 293 -318 82 -468 191 -486 353 -24 215 -341 562 -683 749
-163 88 -307 119 -433 93z m282 -3084 c71 -44 101 -152 119 -430 15 -237 7
-1960 -10 -2062 -17 -99 -49 -178 -84 -204 -52 -38 -252 -21 -348 31 -84 45
-126 142 -153 354 -31 248 -56 872 -57 1399 -1 488 18 660 83 790 57 112 140
152 313 147 84 -2 106 -6 137 -25z"/>
<path d="M35442 28200 c-123 -17 -249 -69 -357 -145 -133 -94 -315 -320 -365
-452 -57 -151 -89 -341 -110 -658 -23 -361 -30 -1046 -30 -3307 l0 -2378 -213
0 c-179 0 -226 -3 -290 -19 -186 -48 -345 -137 -473 -265 -266 -265 -280 -434
-271 -3276 3 -987 9 -1692 16 -1795 36 -569 82 -730 255 -900 168 -165 411
-270 650 -281 67 -3 138 -10 158 -15 82 -21 128 -93 148 -234 6 -44 15 -298
20 -565 6 -346 13 -512 24 -580 45 -287 102 -397 311 -605 185 -185 365 -300
540 -345 97 -25 103 -25 200 0 175 45 355 160 540 345 209 208 266 318 311
605 11 68 18 233 24 580 9 499 17 613 51 690 42 95 74 111 246 121 150 9 232
26 342 70 219 87 403 244 478 406 56 122 91 338 114 708 7 113 13 783 16 1795
9 2841 -6 3011 -271 3276 -128 128 -287 217 -473 265 -64 16 -111 19 -290 19
l-213 0 0 2373 c0 2260 -7 2954 -30 3312 -21 317 -53 507 -110 658 -37 97
-134 233 -249 347 -135 134 -234 192 -394 234 -73 19 -225 27 -305 16z m243
-8915 c71 -34 105 -130 127 -365 18 -191 18 -1673 0 -1855 -23 -228 -54 -319
-122 -359 -29 -17 -52 -21 -135 -21 -83 0 -106 4 -135 21 -68 40 -99 131 -122
359 -18 182 -18 1664 0 1855 31 329 79 396 279 385 39 -2 88 -11 108 -20z"/>
<path d="M40062 28195 c-265 -60 -583 -308 -787 -615 -73 -109 -103 -174 -112
-239 -9 -67 -34 -111 -98 -170 -78 -71 -190 -122 -365 -167 -278 -70 -391
-122 -495 -228 -178 -179 -240 -442 -277 -1176 -18 -352 -18 -3027 0 -3425 41
-910 109 -1240 300 -1446 120 -129 216 -170 622 -265 151 -36 283 -67 293 -70
16 -5 17 -189 17 -3677 l0 -3672 223 -214 c299 -288 382 -349 567 -413 89 -30
104 -32 230 -33 146 0 225 17 335 72 145 74 340 253 418 384 115 196 152 516
173 1499 4 179 10 1614 13 3189 l6 2865 295 71 c449 108 541 146 676 280 63
63 90 99 126 170 135 265 194 649 228 1480 30 755 41 2288 20 2860 -20 542
-51 875 -96 1033 -67 230 -241 469 -447 610 -167 115 -330 173 -551 196 -109
11 -129 16 -160 40 -60 45 -86 102 -101 222 -11 84 -23 124 -52 188 -104 221
-344 453 -598 577 -160 77 -286 101 -403 74z m206 -3100 c190 -57 212 -194
212 -1335 0 -873 -15 -1105 -77 -1229 -43 -86 -89 -110 -251 -132 -130 -17
-181 1 -223 82 -48 96 -51 157 -56 1164 -5 957 1 1179 32 1313 20 83 39 118
78 143 28 18 43 20 132 15 55 -3 124 -12 153 -21z"/>
<path d="M29730 11549 c-324 -26 -612 -92 -772 -176 -228 -119 -375 -483 -339
-838 41 -410 261 -697 612 -799 208 -60 426 -76 1030 -76 494 0 673 9 834 41
164 33 256 81 363 190 328 331 426 743 263 1104 -65 143 -187 284 -301 348
-178 99 -517 175 -924 207 -150 12 -613 11 -766 -1z"/>
<path d="M33205 11530 c-387 -23 -608 -87 -734 -211 -96 -94 -207 -281 -245
-412 -50 -173 -31 -464 45 -694 99 -300 468 -518 1024 -605 120 -19 181 -22
425 -22 245 0 305 3 430 22 626 97 1045 336 1169 668 144 382 -125 1095 -444
1179 -73 19 -320 50 -515 65 -188 15 -961 21 -1155 10z"/>
<path d="M37005 11533 c-340 -16 -654 -48 -770 -78 -319 -84 -588 -797 -444
-1179 124 -332 542 -571 1169 -668 125 -19 185 -22 430 -22 244 0 305 3 425
22 392 62 683 182 861 357 116 115 162 209 210 433 34 156 44 411 20 521 -47
221 -188 378 -426 476 -160 65 -431 116 -725 135 -142 9 -588 11 -750 3z"/>
<path d="M40355 11530 c-293 -18 -482 -60 -614 -137 -79 -46 -223 -186 -281
-272 -53 -79 -93 -168 -122 -268 -19 -65 -23 -101 -22 -223 1 -127 4 -156 28
-235 53 -178 157 -349 303 -499 147 -151 286 -201 619 -227 230 -17 1069 -7
1244 15 394 50 619 134 775 291 96 95 144 181 183 323 25 93 26 108 26 342 0
218 -3 253 -21 321 -36 129 -79 205 -163 290 -149 152 -365 225 -790 269 -135
14 -969 21 -1165 10z"/>
<path d="M8015 10973 c-555 -19 -825 -77 -959 -208 -95 -92 -203 -274 -248
-415 -20 -66 -23 -94 -22 -240 0 -144 4 -180 28 -285 52 -221 100 -326 201
-434 184 -197 513 -294 1115 -331 325 -20 1116 -11 1805 20 565 26 820 65 973
152 146 82 330 315 411 518 129 325 44 657 -235 920 -236 223 -395 272 -969
300 -180 9 -1865 11 -2100 3z"/>
<path d="M14475 10969 c-332 -16 -527 -49 -664 -114 -198 -94 -362 -300 -437
-550 -25 -83 -28 -105 -28 -265 -1 -142 3 -188 18 -245 23 -84 58 -169 105
-250 42 -74 206 -238 283 -283 224 -132 566 -162 1873 -162 1307 0 1648 30
1873 162 32 18 102 78 157 133 82 81 109 117 147 190 73 141 100 243 105 410
4 114 1 158 -15 235 -71 346 -303 605 -607 680 -114 28 -298 48 -540 60 -243
12 -2017 11 -2270 -1z"/>
<path d="M20917 10970 c-362 -23 -512 -68 -636 -190 -69 -68 -225 -274 -285
-377 -61 -102 -105 -229 -118 -333 -13 -106 5 -220 52 -332 70 -170 270 -422
393 -496 174 -105 421 -140 1222 -173 418 -17 1367 -23 1575 -10 793 49 1123
205 1304 617 141 322 106 601 -118 929 -179 262 -297 313 -821 356 -167 14
-2371 21 -2568 9z"/>
<path d="M48175 10973 c-302 -12 -554 -43 -668 -82 -270 -94 -473 -343 -539
-661 -28 -136 -21 -338 16 -463 49 -165 122 -284 244 -398 207 -194 385 -236
1092 -260 389 -13 1658 -6 1905 10 487 33 739 82 942 181 276 136 374 365 360
844 -8 278 -46 395 -172 522 -186 189 -526 270 -1270 304 -190 8 -1712 11
-1910 3z"/>
<path d="M54533 10970 c-362 -22 -520 -69 -645 -193 -159 -157 -295 -383 -339
-562 -27 -111 -30 -293 -6 -402 49 -225 219 -485 361 -553 199 -95 781 -175
1531 -210 274 -13 1013 -13 1241 0 475 27 706 67 890 154 271 128 454 331 526
583 19 65 23 102 22 218 0 121 -4 154 -27 239 -49 178 -155 369 -278 501 -125
133 -283 181 -714 216 -166 14 -2357 21 -2562 9z"/>
<path d="M61595 10973 c-163 -5 -434 -24 -565 -39 -417 -48 -613 -135 -741
-332 -209 -319 -206 -840 5 -1136 87 -123 240 -239 389 -297 352 -136 834
-156 2382 -99 911 34 1118 76 1312 270 148 147 271 351 314 520 29 116 29 283
0 394 -45 171 -150 337 -303 482 -172 162 -341 209 -837 234 -174 9 -1720 11
-1956 3z"/>
<path d="M29900 8780 c-413 -18 -781 -91 -957 -191 -306 -174 -427 -794 -235
-1202 72 -153 170 -245 354 -332 229 -108 561 -185 933 -216 176 -14 586 -6
710 14 380 63 672 211 876 444 152 174 221 350 222 568 1 132 -18 221 -72 339
-70 155 -207 309 -329 370 -228 115 -601 186 -1077 206 -127 5 -234 9 -240 8
-5 -1 -89 -4 -185 -8z"/>
<path d="M40605 8770 c-442 -38 -762 -113 -942 -222 -141 -85 -278 -284 -335
-485 -29 -106 -29 -284 0 -394 113 -420 512 -722 1077 -816 125 -20 535 -28
710 -14 590 49 1050 208 1202 415 129 175 180 369 170 654 -9 264 -78 458
-212 596 -119 121 -367 202 -765 251 -156 19 -742 29 -905 15z"/>
<path d="M33133 8750 c-308 -21 -489 -73 -620 -179 -74 -59 -176 -190 -223
-286 -66 -132 -93 -254 -94 -420 -1 -158 16 -251 67 -375 88 -214 193 -324
411 -430 452 -221 1230 -280 1806 -139 270 67 469 169 634 328 178 172 259
353 258 581 0 148 -23 237 -101 395 -148 299 -272 417 -498 476 -174 44 -284
51 -918 54 -330 2 -655 -1 -722 -5z"/>
<path d="M36855 8749 c-331 -20 -618 -59 -683 -93 -83 -43 -263 -280 -347
-458 -65 -138 -87 -228 -87 -368 -2 -221 74 -391 249 -565 312 -308 919 -474
1553 -426 692 53 1128 264 1310 633 68 140 83 220 77 427 -7 281 -56 422 -196
561 -149 149 -371 230 -753 276 -156 19 -895 28 -1123 13z"/>
</g>
</svg>
