<?xml version="1.0" standalone="no"?>
<!DOCTYPE svg PUBLIC "-//W3C//DTD SVG 20010904//EN"
 "http://www.w3.org/TR/2001/REC-SVG-20010904/DTD/svg10.dtd">
<svg version="1.0" xmlns="http://www.w3.org/2000/svg"
 width="24723.000000pt" height="24111.000000pt" viewBox="0 0 24723.000000 24111.000000"
 preserveAspectRatio="xMidYMid meet">

<g transform="translate(0.000000,24111.000000) scale(0.100000,-0.100000)"
fill="#ee3342" stroke="none">
<path d="M133158 240583 c-109 -655 -124 -780 -163 -1293 -38 -516 -54 -920
-75 -1970 -17 -826 -49 -1338 -94 -1495 -20 -72 -25 -161 -36 -715 -49 -2460
-99 -11675 -140 -26010 -13 -4444 -80 -35580 -80 -37155 l0 -1160 -453 -320
c-1096 -774 -1608 -1132 -2392 -1670 -1136 -780 -1411 -970 -1790 -1234 -818
-569 -1349 -951 -1734 -1249 -568 -440 -876 -657 -1266 -890 -309 -184 -593
-339 -1430 -782 -1377 -729 -1957 -1221 -2470 -2095 -150 -256 -207 -347 -284
-450 -303 -409 -699 -745 -1686 -1430 -618 -429 -1457 -1061 -1990 -1500 -499
-411 -932 -722 -1233 -884 -135 -73 -219 -129 -421 -282 -275 -207 -620 -500
-906 -769 -606 -569 -1126 -960 -1635 -1228 -454 -239 -911 -358 -1242 -325
-273 28 -453 110 -658 298 -109 101 -183 153 -283 200 -187 88 -380 95 -537
18 -32 -15 -90 -61 -140 -109 -47 -45 -110 -97 -140 -116 -135 -86 -384 -195
-590 -258 -204 -63 -347 -136 -519 -265 -233 -175 -498 -468 -773 -852 -219
-305 -347 -533 -367 -652 -14 -85 -87 -233 -193 -390 -162 -241 -188 -284
-228 -386 -96 -248 -135 -499 -165 -1070 -18 -338 -29 -449 -56 -553 -46 -180
-112 -234 -424 -342 -188 -66 -258 -97 -345 -155 -126 -84 -204 -196 -231
-333 -27 -140 7 -417 80 -650 62 -199 161 -220 634 -131 295 54 343 38 367
-128 5 -37 10 -142 10 -233 1 -445 98 -648 530 -1105 162 -171 284 -314 385
-449 136 -183 186 -273 200 -361 20 -124 226 -409 591 -816 216 -240 347 -394
433 -507 77 -102 84 -117 71 -142 -25 -46 -211 -181 -585 -421 -289 -186 -747
-543 -1095 -853 -376 -336 -806 -670 -937 -728 -40 -18 -44 -18 -75 -2 -180
92 -810 691 -1934 1838 -915 935 -1468 1434 -1749 1577 -74 37 -85 40 -145 37
-84 -5 -170 -45 -271 -126 -103 -83 -197 -198 -354 -436 -219 -333 -423 -588
-480 -602 -84 -21 -347 237 -585 572 -240 340 -580 756 -830 1019 -293 307
-768 887 -1125 1375 -333 455 -1042 1302 -1704 2034 -774 857 -1354 1545
-1811 2146 -364 478 -814 1013 -1327 1576 -226 248 -253 277 -1080 1133 l-593
613 37 42 c20 22 120 130 222 239 234 251 282 311 337 423 60 122 78 210 70
344 -13 253 -139 537 -435 982 -357 537 -913 1228 -2285 2843 -2042 2402
-2674 3113 -3971 4470 -1073 1123 -2263 2403 -3405 3660 -1027 1130 -1364
1491 -1879 2006 -644 644 -916 855 -1211 939 -140 40 -419 38 -585 -5 -189
-49 -368 -182 -602 -448 -277 -315 -372 -498 -415 -802 -18 -122 -18 -713 0
-855 43 -352 122 -647 236 -885 29 -60 107 -191 173 -290 902 -1355 5624
-7673 7388 -9885 431 -540 571 -696 845 -944 349 -316 727 -619 1130 -906 291
-207 567 -416 860 -651 305 -245 440 -361 700 -599 553 -508 617 -532 1120
-424 347 75 498 93 620 75 249 -38 408 -217 690 -781 63 -125 118 -209 235
-355 397 -495 996 -1143 1885 -2040 1291 -1302 1712 -1751 1977 -2108 127
-172 184 -305 150 -351 -19 -25 -37 -18 -163 65 -315 208 -1063 780 -1899
1452 -876 705 -3676 2933 -4105 3267 -514 400 -1216 970 -1674 1359 -396 337
-499 421 -720 588 -410 308 -662 460 -921 552 -147 53 -267 65 -354 36 -162
-53 -420 -329 -698 -745 -81 -121 -573 -948 -573 -962 0 -8 70 -167 156 -354
86 -186 210 -458 276 -604 461 -1014 658 -1253 2648 -3204 3597 -3527 5041
-4893 5950 -5627 85 -69 261 -206 390 -304 593 -451 928 -727 1182 -973 222
-214 373 -300 577 -326 253 -34 649 -202 1074 -458 548 -328 848 -572 888
-721 15 -55 -6 -97 -63 -131 -75 -44 -154 -56 -420 -66 -136 -5 -266 -14 -288
-20 -22 -6 -55 -24 -73 -40 -31 -28 -32 -30 -30 -112 1 -61 14 -134 48 -273
130 -531 142 -690 63 -781 -65 -74 -129 -90 -433 -109 -132 -8 -277 -21 -323
-29 -281 -51 -498 -158 -656 -327 -181 -192 -235 -425 -169 -737 32 -156 35
-247 10 -286 -31 -47 -74 -58 -279 -67 -338 -15 -586 -75 -832 -202 -107 -54
-211 -144 -219 -188 -31 -166 -40 -199 -77 -274 -106 -214 -326 -464 -533
-604 -26 -18 -82 -48 -124 -69 l-77 -36 -225 3 c-246 2 -339 -7 -410 -42 -53
-27 -91 -89 -91 -149 0 -57 -32 -110 -123 -205 -174 -182 -393 -339 -906 -651
-212 -129 -387 -236 -389 -237 -2 -2 60 -103 138 -226 149 -236 381 -553 571
-779 166 -198 253 -314 381 -510 417 -634 872 -1519 880 -1711 3 -88 -139
-266 -386 -482 -88 -76 -125 -105 -426 -329 -169 -125 -280 -235 -314 -307
-16 -35 -20 -64 -20 -121 1 -66 9 -95 67 -250 71 -192 111 -315 105 -328 -11
-29 -325 -270 -830 -637 -219 -159 -398 -293 -398 -297 0 -9 258 -451 439
-752 55 -91 105 -175 111 -185 9 -18 -13 -39 -207 -198 -643 -525 -891 -771
-979 -969 -51 -116 -64 -200 -74 -484 -12 -355 -40 -566 -120 -898 -93 -386
-208 -718 -349 -1007 -91 -186 -166 -297 -295 -435 -59 -63 -133 -153 -165
-200 -56 -85 -57 -86 -70 -195 -45 -390 -136 -733 -265 -998 -102 -210 -212
-367 -455 -650 -285 -331 -350 -369 -503 -291 -98 50 -323 208 -391 275 -219
218 -179 447 160 896 258 342 334 508 304 664 -32 161 -217 420 -347 487 -162
83 -358 65 -599 -55 -409 -205 -885 -595 -1970 -1618 -1748 -1648 -3670 -3273
-4939 -4176 -462 -328 -1200 -960 -1814 -1551 -625 -603 -1242 -1137 -1643
-1423 -392 -279 -1025 -815 -1673 -1415 -339 -314 -355 -328 -581 -530 -562
-500 -1060 -909 -1365 -1120 -386 -267 -806 -596 -1151 -901 -58 -52 -179
-158 -268 -237 -826 -729 -3959 -3208 -4509 -3569 -220 -143 -255 -168 -391
-277 -334 -268 -1023 -893 -2006 -1821 -562 -531 -1077 -967 -1400 -1185 -71
-49 -193 -139 -270 -201 -379 -304 -1167 -996 -1741 -1529 -805 -746 -1826
-1616 -2624 -2235 -937 -726 -1976 -1563 -2925 -2355 -969 -809 -1760 -1446
-2174 -1749 -404 -296 -917 -743 -1565 -1364 -616 -590 -1370 -1245 -2186
-1897 -751 -601 -1375 -1150 -1416 -1247 -21 -48 -17 -160 7 -239 93 -302 439
-732 721 -897 81 -47 502 -251 624 -302 50 -21 102 -48 116 -60 49 -42 115
-132 160 -220 43 -85 61 -134 123 -335 65 -210 202 -434 383 -623 177 -185
262 -325 262 -430 0 -192 -402 -592 -1050 -1044 -63 -44 -214 -145 -335 -225
-511 -337 -1247 -925 -1911 -1527 -417 -379 -779 -649 -974 -728 -49 -19 -73
-24 -107 -19 -24 3 -62 9 -86 12 -33 5 -47 2 -67 -14 -24 -19 -25 -25 -26
-134 0 -92 -4 -123 -22 -168 -73 -185 -305 -483 -546 -700 -210 -189 -359
-295 -591 -424 -431 -240 -918 -629 -1451 -1161 -414 -413 -617 -656 -941
-1126 -260 -376 -516 -645 -763 -801 -171 -107 -315 -153 -530 -168 -178 -13
-266 -41 -433 -139 -132 -78 -253 -178 -460 -379 -282 -273 -513 -446 -763
-570 -66 -33 -157 -88 -201 -121 -165 -124 -354 -351 -473 -568 -98 -180 -170
-281 -263 -370 -120 -115 -206 -156 -395 -189 -298 -51 -366 -109 -382 -323
-11 -141 -30 -213 -96 -351 -142 -297 -407 -609 -598 -705 -76 -39 -120 -43
-169 -19 -97 50 -180 151 -269 329 -101 201 -166 279 -264 312 -133 45 -320
-34 -614 -260 -42 -33 -141 -90 -225 -132 -232 -115 -417 -172 -642 -200 -318
-39 -597 -141 -983 -360 -211 -120 -404 -183 -520 -169 -36 4 -81 6 -100 5
-129 -7 -451 -107 -695 -216 -283 -126 -673 -274 -980 -372 -1223 -390 -2030
-688 -2578 -952 -160 -77 -256 -115 -349 -140 -119 -30 -170 -35 -213 -17
-113 48 -356 -25 -620 -184 -192 -116 -643 -317 -1110 -495 -267 -102 -241
-93 -805 -285 -783 -266 -1510 -525 -2545 -905 -1427 -524 -1859 -676 -2395
-840 -1075 -329 -2585 -923 -3535 -1390 -288 -142 -393 -200 -525 -295 -231
-165 -438 -239 -725 -259 -254 -18 -438 -85 -581 -213 -140 -124 -447 -241
-839 -319 -461 -92 -803 -200 -1120 -353 -299 -145 -512 -205 -795 -226 -251
-18 -452 -95 -607 -233 -74 -65 -133 -104 -227 -148 -161 -75 -395 -138 -596
-159 -233 -25 -532 -109 -742 -208 -59 -28 -165 -89 -236 -136 -148 -99 -260
-154 -387 -191 -196 -57 -226 -59 -915 -61 -721 -2 -805 -8 -990 -70 -184 -61
-335 -154 -676 -415 -493 -378 -1050 -765 -1480 -1029 -333 -205 -866 -605
-1276 -959 -446 -383 -1139 -933 -1803 -1431 -181 -136 -838 -620 -1460 -1075
-1250 -917 -1367 -1003 -1505 -1119 -367 -307 -616 -604 -794 -947 -148 -284
-233 -567 -283 -939 -26 -195 -26 -869 0 -1045 59 -396 164 -619 650 -1385
770 -1214 1844 -2662 2422 -3269 203 -213 451 -416 590 -483 103 -49 193 -68
330 -68 106 0 300 19 415 41 474 89 1075 429 1309 739 97 129 118 215 85 344
-142 549 -1354 2597 -2098 3546 -493 629 -796 1043 -796 1089 0 39 231 323
521 642 181 198 852 909 858 909 10 0 630 -526 734 -622 317 -293 782 -874
1027 -1284 301 -504 932 -1294 1552 -1944 604 -634 1046 -1173 1243 -1514 92
-161 166 -266 359 -506 273 -339 567 -659 1131 -1230 549 -555 855 -888 1232
-1339 147 -177 235 -291 464 -602 290 -395 738 -919 1063 -1244 359 -359 481
-499 556 -637 52 -97 61 -158 31 -215 -31 -63 -120 -116 -253 -153 -234 -65
-584 -311 -1033 -729 -1018 -947 -2660 -2303 -3605 -2976 -580 -413 -1010
-764 -1351 -1105 -364 -362 -497 -563 -519 -782 -19 -200 -106 -368 -283 -550
-164 -168 -267 -381 -267 -553 0 -82 33 -186 97 -305 363 -676 1723 -1964
2698 -2555 143 -86 369 -197 470 -230 46 -15 134 -32 208 -41 296 -33 480
-164 1093 -778 584 -585 1259 -1354 1719 -1956 344 -451 1519 -1784 2795
-3170 993 -1080 1133 -1233 1626 -1780 1112 -1236 1856 -2091 2484 -2860 961
-1175 1819 -2197 3045 -3630 847 -989 1620 -1870 3934 -4485 1166 -1317 1679
-1915 2290 -2670 639 -789 898 -1157 1107 -1570 89 -176 124 -286 124 -386 0
-82 -15 -134 -82 -294 -96 -229 -129 -367 -129 -549 0 -225 51 -349 205 -501
155 -152 454 -419 1171 -1045 343 -299 726 -650 1210 -1110 351 -333 435 -411
520 -480 227 -185 393 -240 685 -225 449 23 746 92 1055 245 165 81 296 166
458 297 185 150 279 267 329 412 21 60 23 83 23 256 -1 180 -3 199 -38 365
-20 96 -62 270 -93 385 -101 374 -114 463 -76 498 24 22 42 21 137 -3 134 -34
217 -24 360 45 207 100 404 308 670 710 146 220 223 317 302 381 103 84 174
76 226 -26 41 -83 57 -189 67 -455 12 -320 33 -450 106 -676 127 -395 400
-823 883 -1389 248 -290 883 -997 1275 -1420 267 -288 767 -785 919 -915 248
-211 408 -315 555 -362 76 -24 94 -25 190 -20 338 19 806 267 1124 595 160
164 238 307 238 436 1 162 110 454 230 615 212 283 1100 1015 1758 1449 194
128 387 232 430 232 171 0 1269 -1195 1995 -2170 366 -490 750 -932 1427
-1642 452 -473 674 -768 725 -965 36 -137 -29 -196 -235 -212 -90 -7 -121 -14
-176 -40 -127 -59 -237 -209 -280 -381 -22 -87 -22 -264 0 -350 42 -162 280
-530 572 -886 55 -67 190 -222 300 -345 772 -859 1257 -1484 1434 -1844 159
-326 99 -458 -325 -711 -266 -158 -415 -224 -504 -224 -67 1 -115 27 -210 114
-178 164 -330 200 -831 200 -244 0 -1238 -40 -1249 -49 -2 -2 -14 -167 -27
-367 -36 -554 -69 -782 -135 -910 -19 -37 -23 -40 -52 -34 -51 10 -120 61
-213 159 -142 147 -255 308 -368 525 -66 127 -161 240 -322 384 -483 430
-1269 975 -1809 1254 -187 96 -224 107 -339 102 -111 -5 -186 -34 -368 -143
-154 -91 -495 -317 -602 -398 -474 -357 -720 -718 -808 -1182 -19 -102 -22
-153 -22 -345 0 -201 2 -234 22 -304 76 -274 270 -533 897 -1196 703 -745
1159 -1309 1327 -1645 130 -258 451 -656 1022 -1265 169 -180 1048 -1060 1562
-1563 l141 -138 234 191 c561 459 652 524 777 551 93 19 275 142 547 369 246
205 372 290 433 290 37 0 77 -26 125 -82 181 -215 336 -568 468 -1071 33 -127
67 -256 76 -284 l14 -53 1084 0 1083 0 265 278 c145 152 322 333 393 402 353
342 1148 1052 1904 1700 605 518 1548 1335 2690 2330 650 566 889 771 1375
1176 643 536 1349 1105 1735 1399 292 222 598 469 850 685 1497 1284 3424
3239 3814 3870 179 289 367 756 681 1690 285 848 541 1559 813 2255 90 231
730 1933 902 2400 233 632 758 1984 1152 2970 451 1127 688 1769 702 1903 45
422 819 2042 1754 3667 216 377 364 623 672 1120 733 1182 1135 1862 1187
2009 37 106 375 667 923 1531 696 1098 1121 1805 1156 1921 29 99 198 365 476
745 253 346 583 838 746 1109 92 155 181 261 312 375 220 191 437 342 710 495
371 207 853 555 1464 1054 380 311 586 490 1006 876 1764 1623 3523 3146 5345
4630 951 775 1830 1497 2505 2060 569 474 894 722 1306 996 434 288 626 438
899 704 96 94 196 181 230 202 268 162 555 101 929 -200 49 -39 166 -143 260
-230 487 -454 681 -576 936 -589 170 -9 355 41 668 183 499 224 1213 761 2053
1544 517 481 1313 1149 1849 1550 678 508 1348 1113 2510 2265 715 709 1064
1038 1188 1120 33 22 42 23 75 14 55 -15 71 -46 64 -125 -9 -119 -118 -310
-316 -557 -124 -155 -189 -252 -251 -375 -70 -137 -101 -232 -107 -327 -5 -79
-5 -81 41 -171 143 -285 551 -759 1362 -1585 784 -798 1447 -1493 1911 -2004
323 -356 704 -714 999 -938 52 -39 626 -439 661 -460 12 -7 874 507 1167 695
732 470 1924 1381 3061 2337 1113 937 1942 1715 2457 2306 419 481 714 838
805 976 l47 71 -24 46 c-54 101 -353 481 -645 817 -504 580 -817 984 -865
1114 -52 142 -244 415 -576 816 -317 384 -775 1018 -1317 1825 -582 865 -563
840 -615 862 -138 62 -507 13 -812 -108 -209 -82 -334 -154 -520 -303 -222
-177 -437 -311 -501 -311 -43 0 -90 21 -98 44 -36 96 227 368 784 810 563 447
941 765 1460 1226 191 169 298 268 736 675 1164 1082 4262 3677 6029 5050 820
637 1876 1528 2499 2109 483 449 777 714 1173 1053 418 359 560 475 1154 943
516 407 1259 1044 1824 1564 1141 1050 4091 3488 5125 4237 335 242 843 668
1466 1230 481 433 1335 1143 1957 1627 593 462 791 579 1032 612 93 13 132 10
418 -26 483 -61 606 -24 912 271 113 108 152 137 251 185 92 44 209 73 364 90
146 16 639 29 1125 30 704 1 933 26 1130 125 80 40 144 90 270 210 148 141
223 186 375 221 112 26 459 25 815 -4 564 -46 846 -58 1002 -43 230 22 307 65
465 263 144 181 225 235 413 276 66 15 157 17 725 17 720 0 766 4 965 67 124
40 197 77 355 182 250 167 524 278 795 322 543 87 2247 982 3160 1660 1078
799 3229 2804 4516 4209 708 773 1006 1040 1163 1040 41 0 47 -4 101 -63 68
-73 124 -175 144 -261 10 -42 31 -86 66 -139 160 -235 552 -681 1074 -1221
375 -389 935 -997 1340 -1456 312 -354 518 -596 786 -930 442 -549 1101 -1331
1596 -1890 665 -753 1411 -1649 1744 -2095 628 -839 1515 -1825 2215 -2460
170 -154 389 -330 566 -454 306 -215 379 -283 379 -351 0 -41 -14 -61 -154
-205 -165 -169 -221 -258 -273 -427 -24 -80 -26 -103 -27 -258 -1 -192 11
-266 72 -449 43 -132 146 -343 234 -481 35 -55 119 -176 187 -269 244 -334
460 -673 553 -866 129 -270 234 -447 436 -736 580 -830 1464 -1873 2502 -2954
771 -803 1604 -1711 1939 -2114 180 -215 348 -391 648 -677 525 -501 1067
-988 1618 -1454 495 -418 991 -846 2480 -2140 810 -703 1141 -977 1571 -1302
498 -374 682 -490 972 -613 279 -117 401 -119 627 -11 116 56 476 261 585 334
366 245 514 457 624 894 105 421 87 694 -69 1018 -96 200 -301 481 -566 776
-594 661 -926 1041 -1124 1284 -352 433 -738 885 -1216 1420 -596 668 -1016
1187 -1336 1651 -969 1403 -6283 7146 -7545 8155 -402 321 -675 492 -862 539
-103 26 -283 26 -466 1 -218 -31 -262 -34 -340 -22 -167 26 -342 135 -615 383
-416 378 -1514 1494 -2330 2368 -507 543 -833 905 -1230 1370 -491 574 -1463
1675 -1879 2129 -590 643 -1097 1250 -1357 1623 -255 366 -748 983 -1169 1462
-405 461 -648 756 -902 1093 -207 276 -346 491 -449 695 -148 293 -302 537
-451 711 -199 232 -236 279 -262 327 -46 85 -21 97 89 42 173 -86 358 -229
481 -371 72 -83 100 -130 180 -311 35 -77 119 -167 186 -198 99 -46 228 -48
368 -6 126 38 327 157 481 286 109 91 659 587 659 594 0 13 -439 863 -490 949
-180 305 -275 432 -465 620 -172 171 -344 366 -689 780 -647 776 -1256 1568
-1256 1634 0 166 1340 1287 1857 1554 144 75 299 98 395 60 143 -56 304 -225
638 -668 235 -312 388 -485 739 -835 263 -263 461 -445 654 -603 393 -321 608
-516 835 -758 267 -284 398 -447 546 -679 422 -656 603 -779 973 -655 293 98
707 364 1133 728 58 50 240 226 405 391 308 310 392 383 505 439 60 29 73 32
161 32 92 0 98 -1 180 -42 46 -23 123 -72 172 -108 79 -60 568 -489 575 -504
1 -4 -251 -240 -560 -526 -1020 -942 -1450 -1398 -1680 -1784 -177 -298 -217
-516 -139 -751 87 -259 282 -552 527 -791 173 -167 309 -260 479 -324 213 -80
529 -297 885 -608 157 -138 551 -532 694 -697 65 -74 166 -195 225 -269 308
-390 490 -591 930 -1031 684 -683 1237 -1148 1536 -1290 132 -63 206 -82 340
-87 106 -4 132 -2 220 21 241 62 507 231 995 631 472 387 1020 789 1567 1151
309 204 431 291 653 469 307 245 509 439 676 647 54 68 200 225 324 349 300
301 517 492 868 764 634 490 969 910 1063 1330 8 36 13 115 13 195 -1 116 -5
148 -28 225 -81 268 -332 652 -673 1027 -309 340 -633 760 -974 1265 -300 443
-522 732 -725 944 -135 140 -187 211 -244 332 -49 102 -69 177 -76 287 -12
194 -60 331 -138 396 -56 47 -140 152 -228 289 -62 96 -110 180 -248 435 -210
388 -381 519 -810 619 -351 82 -596 97 -745 48 -159 -53 -312 -158 -614 -422
-484 -421 -854 -660 -1216 -784 -339 -117 -623 -128 -903 -34 -118 39 -217 92
-450 241 l-213 135 69 71 c185 191 427 453 513 556 216 259 463 614 584 840
155 288 365 555 771 982 215 225 398 399 875 829 630 567 1112 1005 1504 1364
844 775 1657 1479 2280 1974 598 475 1309 1075 1625 1370 393 367 865 650
1411 844 837 298 1470 691 2014 1248 305 313 515 597 734 994 74 134 170 262
332 445 961 1085 3869 3886 7539 7260 938 863 1274 1178 2075 1949 1194 1150
2090 2035 4211 4155 2486 2487 3445 3461 5904 5996 2781 2867 4961 5107 5980
6145 1125 1146 2182 2278 2475 2650 470 598 1830 1915 3115 3019 453 388 510
438 510 447 0 14 -286 534 -349 634 -222 351 -601 841 -1106 1430 -710 828
-898 1122 -946 1482 -22 167 10 518 77 836 32 152 59 224 99 264 57 57 122 61
305 16 384 -94 1415 -692 3195 -1853 4103 -2677 6248 -3905 10640 -6095 1765
-879 2600 -1277 3293 -1566 441 -184 709 -275 990 -334 203 -42 292 -70 429
-135 116 -55 173 -92 223 -144 50 -53 147 -121 221 -156 85 -39 161 -57 294
-69 178 -16 400 -82 630 -188 269 -123 495 -179 786 -193 203 -9 266 -18 406
-56 133 -35 269 -94 382 -163 226 -140 453 -212 729 -231 268 -18 549 -115
812 -280 246 -155 561 -258 835 -275 273 -16 583 -117 875 -287 122 -70 259
-132 385 -173 145 -47 222 -59 334 -52 67 5 117 2 166 -8 206 -43 485 -172
796 -367 327 -205 466 -268 592 -268 84 0 136 17 243 78 127 71 176 85 288 80
141 -7 241 -46 661 -258 204 -103 434 -213 513 -244 297 -119 501 -149 731
-106 114 21 132 22 224 12 180 -22 400 -109 684 -273 283 -164 622 -289 905
-334 53 -8 179 -19 280 -24 112 -6 224 -18 288 -31 255 -52 524 -169 805 -352
192 -125 258 -163 344 -195 144 -54 238 -50 370 17 106 53 171 70 267 70 158
0 380 -75 689 -234 218 -111 370 -205 437 -269 27 -26 62 -54 78 -62 76 -39
308 -44 535 -10 238 35 478 8 685 -77 159 -66 289 -152 456 -302 106 -95 184
-135 350 -177 91 -23 158 -32 284 -40 191 -11 316 -34 486 -90 125 -40 314
-127 387 -178 206 -141 581 -241 1052 -281 195 -17 602 -14 790 5 285 29 551
93 700 168 336 169 1220 997 1684 1577 222 277 291 443 312 749 18 256 -11
523 -81 761 -216 725 -889 1638 -2480 3360 -1176 1272 -3135 3293 -4135 4264
-1102 1069 -1919 1784 -3210 2806 -968 766 -1632 1370 -2226 2021 -316 346
-515 612 -679 904 -185 331 -471 725 -717 986 -187 200 -358 418 -526 671 -93
140 -221 360 -249 428 -23 54 -198 365 -274 487 -100 159 -173 258 -255 348
-134 145 -344 439 -788 1105 -153 228 -356 537 -451 685 -361 560 -768 1165
-975 1450 -225 310 -713 1014 -1127 1625 -1058 1564 -2033 2876 -3048 4100
-478 577 -1015 1263 -1521 1944 -428 574 -639 848 -918 1186 -359 436 -494
580 -811 870 -135 123 -246 227 -248 230 -1 4 314 315 700 692 972 949 1297
1293 1492 1582 134 197 180 321 174 469 -3 85 -7 100 -42 173 -90 181 -313
348 -834 623 -502 264 -1058 652 -1298 902 -104 110 -213 267 -396 574 -507
848 -1280 2391 -1433 2860 -30 93 -31 138 -6 238 137 533 997 1874 1296 2019
44 22 46 22 116 5 243 -58 947 -379 2099 -954 2323 -1160 4962 -2610 5885
-3234 422 -285 997 -800 1257 -1127 32 -40 81 -112 109 -159 217 -368 526
-685 794 -814 89 -43 177 -66 218 -55 228 57 2575 2365 3703 3642 282 320 413
482 571 709 283 407 314 524 229 857 -19 73 -53 183 -75 245 -253 687 -1707
3546 -2618 5147 -90 159 -373 636 -627 1060 -255 424 -573 956 -708 1181 -400
671 -455 756 -2198 3370 -1291 1936 -1549 2325 -2020 3050 -367 564 -486 752
-560 880 -236 411 -1110 1608 -2109 2890 -499 639 -727 958 -1293 1810 -1004
1510 -1258 1848 -1938 2585 -390 423 -777 901 -886 1096 -19 34 -39 85 -43
112 -10 68 -73 173 -206 352 -168 223 -270 344 -590 701 -338 377 -723 863
-985 1244 -285 415 -725 934 -1476 1741 -603 648 -1136 1259 -1384 1588 -440
584 -1585 1829 -3480 3786 -1400 1445 -3729 3779 -5190 5201 -1737 1690 -2854
2726 -3470 3217 -306 245 -724 608 -1295 1126 -233 212 -295 269 -745 687
-1176 1092 -2305 2092 -3270 2895 -438 365 -789 648 -907 732 -677 483 -2705
1599 -3088 1700 l-66 17 -122 -62 c-329 -168 -1122 -654 -2462 -1510 -921
-588 -1437 -915 -1822 -1154 -360 -224 -425 -267 -555 -366 -171 -131 -265
-247 -304 -378 -24 -77 -27 -350 -5 -435 44 -175 146 -270 446 -415 82 -39
200 -105 260 -146 127 -85 262 -213 293 -280 26 -53 29 -127 7 -169 -13 -24
-22 -30 -49 -30 -57 0 -205 83 -494 276 -292 196 -370 239 -460 256 -92 17
-133 1 -218 -85 -184 -187 -176 -353 33 -667 115 -173 264 -358 607 -755 1400
-1615 2391 -3078 2707 -3994 70 -204 96 -322 109 -498 17 -224 96 -464 285
-863 170 -357 254 -612 275 -830 19 -204 105 -463 267 -804 177 -375 270 -677
288 -941 16 -231 119 -495 277 -706 223 -299 308 -472 278 -564 -15 -46 -59
-81 -128 -101 -77 -23 -344 -14 -532 17 -105 17 -177 22 -325 23 -179 0 -195
-2 -279 -28 -118 -36 -232 -95 -407 -213 -153 -102 -358 -207 -474 -242 -38
-12 -118 -28 -177 -36 -114 -15 -212 -48 -308 -105 -81 -48 -123 -82 -250
-205 -158 -152 -300 -245 -375 -245 -88 1 -216 85 -408 268 -149 141 -247 207
-379 254 -149 53 -209 42 -542 -97 -600 -250 -1426 -655 -3220 -1580 -657
-338 -1197 -615 -1202 -614 -5 0 -70 68 -144 150 -347 384 -487 479 -716 479
-244 0 -486 -132 -974 -530 -418 -342 -824 -629 -1167 -826 -470 -271 -1052
-652 -1898 -1245 -480 -336 -1345 -937 -1560 -1084 -372 -253 -479 -360 -479
-480 0 -70 22 -105 138 -221 108 -108 144 -166 192 -306 76 -224 74 -531 -4
-685 -72 -140 -196 -250 -557 -493 -484 -326 -975 -699 -1635 -1245 -247 -205
-554 -446 -845 -665 -272 -205 -806 -578 -815 -570 -34 30 -731 777 -842 904
-342 385 -666 787 -1047 1296 -282 378 -510 667 -706 895 -1067 1246 -2214
2142 -3770 2946 -384 198 -593 259 -1030 300 -173 16 -2270 24 -2570 10 -618
-30 -827 -86 -1350 -363 -1043 -552 -1772 -1052 -2800 -1918 -621 -524 -1407
-1129 -2285 -1760 -706 -506 -1486 -1104 -1765 -1351 -172 -152 -410 -347
-1000 -818 -1056 -844 -2809 -2204 -2812 -2182 -2 9 -10 131 -18 271 -20 329
-31 1653 -45 5150 -19 5046 -44 14937 -55 21850 -17 11059 -46 15300 -115
16900 -33 766 -71 1070 -160 1284 -115 277 -175 564 -210 1011 -6 72 -15 355
-20 630 -12 616 -31 871 -96 1260 -86 512 -220 997 -431 1558 -153 407 -294
727 -578 1307 -301 615 -387 841 -402 1055 -16 228 74 379 331 555 186 128
341 290 334 349 -2 20 -11 27 -38 32 -149 31 -884 58 -2075 79 -1693 30 -2498
33 -9745 37 l-7535 4 -87 -528z m14785 -25766 c134 -57 208 -332 224 -832 7
-232 -5 -353 -42 -431 -32 -66 -56 -78 -145 -72 -231 17 -413 240 -460 566
-17 112 -8 454 14 540 35 140 98 216 201 243 41 11 168 2 208 -14z m20062
-21541 c372 -60 788 -209 1330 -476 572 -282 709 -419 999 -1000 190 -380 295
-648 386 -977 95 -347 133 -603 134 -908 0 -252 -14 -353 -70 -525 -93 -282
-425 -731 -874 -1181 -394 -395 -770 -689 -1086 -847 -294 -147 -770 -258
-1254 -292 -188 -13 -644 -13 -785 0 -379 35 -630 136 -1085 435 -325 214
-618 502 -855 841 -304 434 -516 945 -610 1469 -68 382 14 804 244 1260 341
673 948 1302 1669 1728 435 258 923 442 1292 487 109 13 447 5 565 -14z
m-28852 -7900 c172 -51 262 -118 291 -215 115 -392 142 -1909 46 -2581 -45
-311 -124 -485 -251 -550 -56 -29 -149 -41 -238 -30 -103 13 -276 58 -332 86
-172 86 -195 290 -186 1633 5 777 13 1015 42 1325 25 256 36 282 137 326 78
33 123 39 268 36 109 -3 152 -9 223 -30z m75604 -30405 c92 -42 109 -148 73
-460 -18 -161 -21 -230 -17 -400 6 -291 44 -464 143 -664 119 -242 287 -400
540 -512 222 -97 324 -97 519 -1 132 65 369 221 518 341 60 48 168 147 240
219 203 203 342 295 750 495 327 161 498 271 707 452 238 208 322 230 443 119
94 -86 176 -215 385 -611 284 -536 700 -1209 1363 -2204 700 -1051 1226 -1781
1572 -2184 240 -279 473 -639 493 -760 18 -111 72 -214 221 -418 165 -226 355
-450 643 -758 307 -328 516 -579 656 -785 87 -128 119 -192 127 -247 9 -76
137 -258 405 -581 853 -1024 2375 -2633 4477 -4737 1444 -1444 2214 -2261
2557 -2712 281 -371 1194 -1399 1943 -2188 812 -855 1471 -1653 1747 -2114
250 -418 612 -893 903 -1187 72 -72 200 -194 285 -272 160 -145 255 -249 278
-304 12 -29 11 -33 -10 -55 -16 -15 -48 -28 -98 -39 -188 -40 -462 27 -840
206 -91 43 -201 91 -245 108 -321 121 -751 222 -1060 251 -350 33 -471 52
-699 110 -399 102 -687 256 -712 380 -5 22 -15 33 -38 41 -57 21 -252 23 -443
6 -146 -13 -204 -14 -295 -6 -248 23 -479 87 -738 203 -435 194 -760 274
-1305 322 -99 9 -210 20 -246 25 -120 18 -300 108 -413 208 -102 92 -305 204
-432 240 -38 11 -127 27 -198 37 -401 53 -948 234 -1232 407 -208 127 -423
182 -778 199 -426 20 -595 81 -820 298 -108 104 -169 150 -244 184 -41 19 -65
22 -177 22 -120 0 -138 3 -235 34 -299 95 -626 240 -1255 556 -771 388 -1165
552 -1383 574 -207 22 -372 88 -587 233 -224 153 -617 380 -960 558 -320 165
-797 436 -1840 1045 -666 389 -1344 780 -1430 826 -81 43 -312 124 -499 175
-72 19 -164 48 -205 65 -189 75 -449 236 -646 399 -298 247 -1167 784 -2145
1327 -990 550 -1711 994 -2205 1358 -279 206 -549 375 -630 396 -121 31 -162
47 -288 112 -76 39 -225 129 -330 200 -1038 701 -1938 1270 -2281 1444 -726
367 -1823 1099 -2213 1476 -132 127 -152 179 -117 298 66 227 405 648 1198
1489 299 317 577 606 1361 1414 352 362 640 663 640 667 0 4 -153 146 -340
316 -488 444 -716 686 -790 837 -23 46 -25 58 -14 78 53 102 539 631 1398
1522 511 530 758 759 924 858 166 100 274 114 587 78 215 -25 364 -23 480 5
136 33 291 125 495 295 152 127 250 189 321 204 52 12 99 -17 203 -122 107
-109 191 -160 302 -187 172 -40 366 4 548 125 110 74 193 155 313 306 142 179
287 302 425 359 75 31 188 34 250 6z m-115561 -11261 c74 -26 154 -78 215
-142 183 -191 150 -431 -69 -494 -79 -23 -146 -15 -235 29 -129 64 -242 192
-286 325 -25 73 -26 101 -5 150 21 52 70 100 129 128 65 31 167 33 251 4z
m-92239 -78876 c62 -17 123 -70 123 -106 0 -78 -192 -145 -389 -135 -127 6
-175 19 -213 58 -28 27 -28 29 -14 58 61 116 304 178 493 125z m8173 -3184
c53 -27 175 -135 271 -241 159 -174 310 -362 573 -714 740 -988 1069 -1455
1027 -1455 -22 0 -145 101 -241 199 -337 342 -1130 1283 -1535 1822 -184 244
-218 301 -211 354 8 66 37 75 116 35z"/>
</g>
</svg>
