<?xml version="1.0" standalone="no"?>
<!DOCTYPE svg PUBLIC "-//W3C//DTD SVG 20010904//EN"
 "http://www.w3.org/TR/2001/REC-SVG-20010904/DTD/svg10.dtd">
<svg version="1.0" xmlns="http://www.w3.org/2000/svg"
 width="7798.000000pt" height="7800.000000pt" viewBox="0 0 7798.000000 7800.000000"
 preserveAspectRatio="xMidYMid meet">

<g transform="translate(0.000000,7800.000000) scale(0.100000,-0.100000)"
fill="#ee3342" stroke="none">
<path d="M36725 77993 c-373 -4 -759 -23 -1085 -54 -2426 -225 -4403 -548
-6764 -1105 -873 -206 -1103 -272 -2081 -599 -971 -325 -1828 -634 -2390 -862
-3521 -1433 -6497 -3191 -9625 -5688 -1359 -1085 -2459 -2070 -3635 -3256
-2620 -2643 -4822 -5588 -6647 -8889 -496 -897 -1064 -2028 -1501 -2990 -1203
-2649 -2013 -5519 -2668 -9445 -85 -516 -117 -740 -149 -1070 -194 -2015 -242
-6584 -95 -8990 34 -551 63 -826 146 -1405 597 -4151 1673 -7829 3304 -11285
165 -351 586 -1187 766 -1525 978 -1832 2114 -3588 3429 -5302 632 -823 1119
-1402 1878 -2235 1032 -1133 2406 -2525 3388 -3433 1454 -1346 3389 -2820
5254 -4002 2651 -1681 5303 -2952 8110 -3889 1558 -519 3044 -897 5409 -1373
534 -108 713 -135 1536 -230 1522 -177 2704 -280 3730 -326 1067 -47 2467 -47
3595 0 2592 108 5112 427 7365 930 700 156 2202 557 2960 790 1169 360 2993
1078 4504 1774 2918 1345 5784 3195 8481 5475 1444 1221 2884 2616 4161 4031
1713 1899 3265 3959 4476 5940 799 1306 1566 2762 2210 4195 983 2185 1768
4518 2237 6645 63 287 90 423 196 985 28 149 85 430 126 625 119 562 151 723
199 1003 196 1155 331 2580 395 4192 48 1212 52 2797 10 4040 -75 2190 -266
4157 -556 5725 -883 4783 -2598 9182 -5162 13240 -868 1374 -2051 3004 -2869
3956 -1255 1459 -4132 4377 -5463 5540 -147 129 -432 362 -775 635 -3313 2637
-7045 4731 -10825 6072 -691 245 -1648 547 -2550 806 -1557 445 -2767 696
-5075 1050 -319 49 -620 94 -670 100 -970 117 -5024 231 -7280 204z m3255
-5833 c952 -21 1789 -58 2395 -106 742 -57 2276 -263 3125 -418 1242 -227
3104 -740 4550 -1253 4067 -1444 7847 -3743 11148 -6781 723 -665 1464 -1406
2119 -2120 848 -923 1656 -1896 2448 -2947 2329 -3093 3773 -5965 5063 -10075
256 -813 315 -1052 528 -2115 434 -2177 646 -3769 739 -5545 33 -642 39 -926
39 -1740 0 -814 -7 -1120 -39 -1750 -270 -5170 -1681 -10128 -4100 -14405
-1547 -2734 -3528 -5260 -6052 -7716 -687 -668 -1116 -1064 -1688 -1555 -1186
-1018 -2256 -1816 -3815 -2843 -427 -281 -507 -330 -666 -412 -188 -96 -529
-292 -959 -549 -602 -361 -1118 -649 -1220 -680 -60 -19 -403 -172 -920 -410
-644 -297 -1059 -471 -1735 -725 -1170 -440 -2831 -992 -3459 -1150 -588 -147
-1748 -382 -2933 -594 -1367 -245 -2714 -375 -4348 -422 -461 -13 -1903 -7
-2310 10 -1995 84 -3639 258 -5345 566 -1031 186 -1838 376 -2920 687 -1149
330 -2034 629 -2374 804 -126 65 -288 124 -339 124 -59 0 -237 72 -707 285
-1047 475 -2977 1428 -3629 1792 -556 310 -1954 1251 -3121 2102 -629 458
-906 676 -1495 1175 -2458 2085 -4580 4392 -6322 6876 -1454 2074 -2659 4303
-3573 6610 -516 1302 -966 2702 -1280 3984 -629 2564 -1071 6363 -1006 8641
32 1114 123 2233 287 3540 237 1886 613 3914 965 5199 870 3177 2727 6962
4903 9996 1944 2710 4753 5522 7816 7825 569 427 1019 748 1455 1038 1708
1134 3955 2269 6145 3105 484 185 1008 370 1320 467 1143 355 3345 883 4441
1064 134 23 561 84 949 136 388 52 847 115 1020 140 593 84 1113 120 2085 144
452 12 2321 12 2815 1z"/>
<path d="M38345 69253 c-1463 -74 -3154 -280 -4730 -574 -786 -147 -2762 -552
-3798 -778 -203 -45 -370 -81 -373 -81 -2 0 -4 -12840 -4 -28532 l0 -28533
253 -58 c138 -33 414 -96 612 -142 3519 -817 5454 -1126 7630 -1216 360 -15
1410 -15 1765 0 1787 75 3394 280 6025 767 936 173 1898 381 2263 488 46 13
160 55 253 93 l169 68 0 12150 0 12150 -2047 2047 -2048 2048 2049 2049 2048
2048 -5 10864 c-5 9847 -13 13206 -33 13602 l-6 138 -28 14 c-102 53 -845 213
-2345 506 -2277 444 -4884 795 -6543 879 -180 9 -949 11 -1107 3z m1315 -6033
c1269 -32 2088 -71 2415 -116 61 -8 196 -34 300 -58 l190 -43 3 -8624 2 -8624
-1830 -1845 -1830 -1845 -73 -3 c-71 -3 -2716 60 -3094 74 l-183 6 0 10478 0
10478 38 6 c133 22 770 98 889 107 79 6 266 14 416 19 341 10 2228 4 2757 -10z
m1066 -28832 l1842 -1843 -13 -3920 c-12 -3386 -55 -13148 -59 -13151 -5 -5
-1950 -176 -2086 -184 -456 -26 -874 -32 -1710 -27 -807 5 -1022 10 -1550 37
-705 35 -1270 91 -1530 151 -79 18 -92 24 -105 49 -71 138 -109 999 -135 3050
-17 1275 -29 6647 -30 12393 l0 5287 1768 0 1767 0 1841 -1842z"/>
<path d="M51016 66588 c-37 -377 -70 -4479 -98 -12513 -17 -4615 -17 -29571 0
-35135 17 -5596 33 -7964 54 -7986 76 -75 2332 1530 4783 3401 1463 1118 2364
1843 2895 2331 438 402 675 605 794 682 137 88 729 703 1421 1477 2225 2486
3925 5149 5222 8175 336 784 933 2320 933 2401 0 25 -41 54 -146 104 -255 122
-561 234 -1429 525 -807 271 -1189 404 -1403 489 -498 199 -2193 776 -2454
835 -21 5 -31 1 -46 -19 -57 -72 -195 -380 -311 -695 -170 -460 -252 -663
-426 -1055 -181 -408 -334 -729 -607 -1275 -761 -1524 -1274 -2371 -2081
-3439 -591 -782 -1115 -1361 -1233 -1361 -19 0 -22 7 -28 68 -43 464 -75 3447
-97 9002 -13 3357 -6 15252 10 17440 24 3163 49 4715 80 4827 10 36 29 33 101
-15 207 -140 735 -745 1260 -1447 768 -1027 1254 -1837 2013 -3355 439 -876
733 -1517 1038 -2256 242 -590 401 -916 483 -993 25 -23 28 -24 83 -11 448 99
4808 1579 5188 1761 28 13 55 35 62 49 7 14 13 64 13 114 0 250 -173 811 -512
1661 -410 1025 -1154 2651 -1596 3485 -1070 2022 -2410 3885 -4072 5660 -232
248 -903 921 -1175 1179 -1637 1552 -3350 2857 -5410 4123 -1464 899 -3132
1828 -3283 1828 -17 0 -21 -9 -26 -62z"/>
<path d="M26545 66349 c-79 -18 -234 -73 -465 -164 -2909 -1152 -6383 -3770
-9361 -7055 -1226 -1353 -2344 -2803 -3251 -4215 -2434 -3792 -3808 -7591
-4292 -11870 -217 -1916 -251 -3919 -105 -6295 131 -2145 419 -3823 974 -5680
139 -465 244 -827 275 -953 37 -153 93 -319 165 -487 66 -158 138 -348 325
-860 163 -446 224 -601 358 -915 276 -644 667 -1478 1043 -2225 372 -741 562
-1070 616 -1070 23 0 466 229 873 452 545 299 879 486 1775 995 653 371 1322
742 1565 868 118 61 298 165 400 231 102 66 231 149 288 184 56 35 101 68 98
74 -2 6 -171 367 -376 801 -411 873 -501 1070 -660 1445 -751 1778 -1421 3967
-1635 5343 -58 377 -67 480 -72 889 l-5 387 288 -5 c159 -2 777 -9 1374 -14
1070 -10 4082 -50 4088 -55 3 -2 19 -3946 62 -14820 11 -2882 22 -5445 23
-5695 l2 -454 160 -110 c1171 -800 2167 -1422 3050 -1903 373 -204 604 -323
1340 -693 817 -410 1173 -576 1194 -555 77 77 112 33586 51 47920 -16 3760
-37 6205 -56 6438 l-7 77 -31 -1 c-17 -1 -49 -5 -71 -10z m-5771 -11612 c24
-18 33 -69 45 -257 58 -907 70 -4390 33 -9484 -12 -1567 -23 -2850 -25 -2852
-9 -9 -4968 -73 -5689 -74 l-58 0 0 288 c0 318 10 429 66 762 145 859 484
2281 771 3230 592 1961 1920 4628 3186 6398 77 108 275 375 441 592 818 1078
1016 1317 1150 1392 38 21 57 22 80 5z"/>
</g>
</svg>
