<?xml version="1.0" standalone="no"?>
<!DOCTYPE svg PUBLIC "-//W3C//DTD SVG 20010904//EN"
 "http://www.w3.org/TR/2001/REC-SVG-20010904/DTD/svg10.dtd">
<svg version="1.0" xmlns="http://www.w3.org/2000/svg"
 width="13231.000000pt" height="18510.000000pt" viewBox="0 0 13231.000000 18510.000000"
 preserveAspectRatio="xMidYMid meet">

<g transform="translate(0.000000,18510.000000) scale(0.100000,-0.100000)"
fill="#ee3342" stroke="none">
<path d="M64520 185090 c-3114 -8 -4894 -22 -5060 -40 -180 -19 -691 -125
-1095 -227 -1628 -410 -3214 -1120 -4655 -2083 -924 -617 -1687 -1249 -2560
-2120 -1391 -1387 -2189 -2489 -3064 -4230 -408 -810 -577 -1188 -1426 -3172
l-512 -1198 -127 0 c-69 0 -1291 -9 -2716 -20 -2340 -18 -7987 -51 -7992 -47
-1 1 -24 191 -52 423 -54 446 -93 660 -159 889 -306 1053 -1072 1952 -2177
2553 -72 39 -341 170 -600 292 l-469 222 -5761 -5 c-5524 -5 -6315 -9 -7195
-37 -1534 -49 -2218 -150 -2725 -402 -224 -111 -400 -239 -729 -530 -382 -338
-704 -684 -909 -976 -404 -576 -639 -1253 -746 -2152 -29 -241 -38 -355 -85
-1098 -24 -370 -47 -677 -52 -681 -5 -5 -454 -234 -997 -510 -544 -276 -1057
-538 -1140 -583 -2536 -1350 -4752 -3159 -6549 -5348 -1887 -2299 -3292 -5000
-4129 -7939 -250 -876 -511 -2065 -588 -2671 -154 -1215 -185 -3703 -211
-17205 -5 -2865 -15 -7703 -21 -10750 -15 -7319 -15 -16728 0 -18830 45 -6581
135 -8467 477 -10065 618 -2887 1782 -5575 3453 -7975 1595 -2292 3637 -4271
5966 -5782 1011 -656 2113 -1245 3220 -1721 1313 -564 2733 -1010 4110 -1292
664 -136 1763 -308 2170 -340 646 -51 7068 -89 20595 -121 6923 -16 36148 -23
45050 -10 14970 22 23440 54 26690 101 1132 17 1232 22 1785 96 2704 361 5356
1248 7745 2592 2769 1557 5157 3697 6982 6257 1815 2546 3070 5450 3688 8535
138 689 158 842 180 1385 110 2778 173 12795 173 27340 0 15490 -72 25874
-194 27775 -11 181 -56 460 -144 911 -462 2348 -1305 4611 -2493 6689 -1247
2183 -2852 4131 -4742 5755 -1609 1382 -3369 2491 -5340 3365 -2577 1142
-5061 1675 -8435 1810 -591 23 -1137 30 -2595 30 l-1535 0 -484 1143 c-525
1237 -652 1531 -916 2112 -474 1043 -759 1615 -1020 2050 -1937 3228 -4801
5714 -8105 7035 -475 190 -710 270 -1645 564 l-710 224 -8605 6 c-4733 3
-10643 8 -13135 10 -2491 2 -5950 0 -7685 -4z m11100 -26450 c1225 -30 2397
-115 3525 -256 5172 -648 10158 -2710 14440 -5974 3074 -2344 5711 -5257 7728
-8541 1288 -2098 2333 -4371 3065 -6669 627 -1967 1099 -4204 1292 -6115 106
-1060 146 -2069 137 -3511 -5 -849 -9 -1011 -42 -1604 -258 -4595 -1534 -9020
-3751 -13006 -1132 -2037 -2496 -3943 -4079 -5699 -649 -721 -1646 -1718
-2405 -2406 -2059 -1865 -4212 -3334 -6773 -4620 -1347 -676 -2623 -1205
-4062 -1685 -2635 -877 -5358 -1390 -8120 -1529 -944 -47 -2088 -49 -3015 -5
-4270 205 -8434 1291 -12295 3205 -4063 2015 -7763 5066 -10671 8800 -709 910
-1434 1959 -2031 2940 -3254 5345 -4786 11885 -4287 18305 513 6614 3145
12834 7564 17875 706 805 1563 1680 2365 2416 2201 2019 4698 3719 7356 5009
1955 950 3909 1654 6084 2194 2610 647 5284 941 7975 876z m-53315 -4390 c622
-42 1212 -207 1780 -499 810 -416 1484 -1090 1914 -1912 224 -428 359 -890
428 -1464 26 -216 26 -856 0 -1065 -76 -615 -220 -1076 -473 -1516 -189 -330
-418 -629 -697 -913 -349 -353 -692 -615 -1123 -857 -525 -294 -1155 -500
-1664 -544 -585 -51 -1492 121 -2174 412 -784 333 -1478 955 -1941 1738 -85
144 -237 450 -294 595 -400 1002 -437 2089 -106 3072 210 624 538 1146 1030
1638 306 306 626 553 985 760 709 409 1543 607 2335 555z"/>
<path d="M73416 149829 c-374 -13 -515 -29 -1091 -120 -3495 -552 -6581 -1667
-9195 -3322 -1779 -1127 -3373 -2513 -4789 -4162 -1481 -1725 -2701 -3681
-3591 -5760 -1821 -4249 -2255 -8940 -1245 -13473 424 -1906 1162 -3861 2110
-5592 1260 -2301 2879 -4336 4835 -6075 1473 -1310 3184 -2461 4915 -3306
1103 -538 2134 -939 3378 -1313 2055 -619 3647 -846 5922 -846 2468 1 4356
204 6035 651 1292 344 2761 920 4215 1654 2606 1315 4896 3105 6781 5298 912
1062 1713 2193 2407 3402 413 719 826 1548 1160 2325 1388 3237 1986 6819
1721 10315 -259 3424 -1307 6679 -3124 9705 -558 929 -1161 1764 -1879 2605
-719 841 -1705 1844 -2551 2596 -2676 2376 -5642 3937 -9095 4789 -571 141
-1158 264 -1520 319 -1387 211 -4001 361 -5399 310z"/>
<path d="M44150 70491 l0 -4379 3993 -5 c3757 -5 4778 -12 5547 -37 339 -11
450 -19 450 -30 0 -13 -338 -617 -1738 -3105 -2543 -4521 -6503 -11544 -11630
-20625 -1199 -2124 -2898 -5133 -4092 -7245 -3117 -5516 -10802 -19129 -15095
-26740 -3597 -6377 -4377 -7763 -4546 -8079 l-128 -241 5051 -3 c2779 -1 5055
1 5059 5 5 5 3947 6981 8761 15503 4814 8522 12619 22335 17343 30696 l8590
15201 2 -641 c7 -1941 44 -32279 53 -43236 6 -7043 13 -13868 16 -15167 l6
-2363 4378 0 4378 0 5 23188 c4 22089 8 25189 37 30992 21 4342 50 6916 78
6966 8 15 54 -65 650 -1131 2119 -3791 8562 -15402 15419 -27790 3326 -6008
17805 -32141 17812 -32148 15 -15 4569 -50 6761 -51 2200 -1 2459 3 2853 39
309 29 398 65 364 147 -64 152 -7196 13060 -16812 30428 -3466 6259 -11832
21399 -15752 28505 -3019 5472 -3723 6755 -3723 6784 0 48 85 81 270 105 479
63 1505 76 6188 76 l3492 0 0 4380 0 4380 -22020 0 -22020 0 0 -4379z"/>
</g>
</svg>
