<?xml version="1.0" standalone="no"?>
<!DOCTYPE svg PUBLIC "-//W3C//DTD SVG 20010904//EN"
 "http://www.w3.org/TR/2001/REC-SVG-20010904/DTD/svg10.dtd">
<svg version="1.0" xmlns="http://www.w3.org/2000/svg"
 width="3460.000000pt" height="6517.000000pt" viewBox="0 0 3460.000000 6517.000000"
 preserveAspectRatio="xMidYMid meet">

<g transform="translate(0.000000,6517.000000) scale(0.100000,-0.100000)"
fill="#ee3342" stroke="none">
<path d="M11215 65159 c-2428 -6 -3199 -11 -4920 -29 -1475 -16 -2371 -37
-2561 -60 -186 -23 -607 -145 -867 -252 -270 -110 -593 -289 -831 -458 -278
-199 -502 -396 -800 -705 -109 -113 -271 -271 -360 -350 -199 -177 -269 -257
-355 -404 -196 -334 -309 -989 -380 -2206 -78 -1326 -110 -3001 -132 -6755
-15 -2607 -6 -40955 9 -43220 30 -4241 65 -5411 178 -5980 28 -138 132 -461
217 -670 564 -1390 1671 -2613 3026 -3346 349 -188 534 -264 1299 -533 l543
-191 12014 0 12014 0 543 191 c765 269 950 345 1299 533 1153 623 2121 1593
2748 2753 216 400 434 955 495 1263 114 571 149 1776 177 6005 14 2051 28
35866 18 40500 -8 3307 -17 4740 -39 6110 -59 3664 -181 5021 -502 5604 -97
176 -198 283 -484 511 -178 142 -343 301 -779 750 -247 254 -383 359 -610 471
-515 253 -1382 364 -3280 419 -693 20 -1437 30 -3000 40 -1929 12 -11292 18
-14680 9z m6545 -5250 c1218 -89 2499 -586 3480 -1349 1365 -1062 2175 -2620
2309 -4440 37 -494 16 -1083 -55 -1580 -186 -1298 -712 -2359 -1644 -3314
-1102 -1129 -2529 -1786 -4120 -1896 -313 -21 -786 -11 -1115 25 -1898 208
-3581 1226 -4610 2789 -143 218 -247 401 -370 651 -360 732 -566 1519 -625
2383 -13 197 -13 667 0 864 68 999 342 1933 808 2753 389 685 964 1331 1632
1832 1038 777 2288 1229 3580 1293 185 9 526 4 730 -11z m-10 -18889 c745 -20
1164 -57 1645 -145 2200 -403 4259 -1379 5920 -2805 474 -407 1001 -936 1401
-1405 1352 -1587 2285 -3510 2694 -5555 235 -1173 298 -2409 185 -3615 -242
-2564 -1270 -4967 -2945 -6880 -1074 -1227 -2371 -2221 -3865 -2960 -1529
-756 -2507 -1072 -3675 -1184 -490 -48 -789 -61 -1545 -68 -2353 -22 -3324
150 -4960 876 -1158 515 -1978 986 -2820 1620 -2156 1626 -3702 3905 -4409
6501 -277 1016 -417 2020 -433 3110 -14 986 78 1886 292 2850 278 1249 769
2486 1427 3595 766 1289 1756 2430 2923 3370 956 770 2035 1401 3180 1860 798
320 1677 569 2503 710 607 103 1545 151 2482 125z m-150 -30986 c282 -41 563
-130 834 -265 653 -326 1096 -940 1227 -1700 21 -118 23 -168 24 -414 0 -174
-5 -320 -13 -385 -55 -433 -184 -780 -401 -1070 -78 -106 -258 -289 -376 -383
-191 -154 -497 -340 -695 -423 -597 -250 -1362 -207 -2031 114 -698 336 -1145
944 -1275 1737 -26 155 -26 542 -1 705 88 565 350 1079 734 1440 184 172 356
289 588 401 471 226 936 307 1385 243z"/>
<path d="M16773 57819 c-557 -30 -875 -112 -1358 -349 -784 -386 -1392 -949
-1806 -1675 -265 -464 -438 -1010 -510 -1610 -27 -219 -37 -697 -20 -951 67
-1014 367 -1722 1045 -2463 156 -171 416 -427 557 -547 509 -436 976 -644
1634 -728 330 -42 802 -58 1366 -46 471 11 634 24 879 71 371 72 876 333 1311
679 648 515 1210 1290 1455 2004 206 601 274 1381 183 2096 -85 669 -295 1182
-723 1765 -492 669 -1214 1269 -1788 1484 -531 200 -1457 312 -2225 270z m749
-2510 c126 -25 244 -66 398 -140 713 -342 1072 -931 1035 -1699 -20 -418 -99
-592 -419 -918 -288 -294 -543 -472 -811 -565 -173 -60 -248 -72 -450 -71
-318 0 -469 51 -770 255 -267 181 -560 464 -700 674 -107 161 -147 296 -166
562 -13 187 -1 409 32 580 88 457 360 801 880 1113 352 211 644 274 971 209z"/>
<path d="M16810 38244 c-717 -34 -1369 -122 -1810 -245 -557 -155 -1505 -526
-2085 -816 -1446 -724 -2660 -1795 -3539 -3122 -358 -540 -597 -991 -876
-1650 -206 -488 -411 -1054 -514 -1421 -115 -411 -206 -988 -258 -1635 -17
-216 -17 -1085 0 -1300 61 -760 167 -1359 357 -2014 232 -801 593 -1620 1023
-2321 740 -1205 1706 -2211 2882 -3000 793 -532 1601 -918 2645 -1264 707
-235 1102 -276 2670 -276 1725 0 2013 40 3054 416 1261 457 2288 1058 3280
1921 188 163 701 676 864 864 1105 1271 1826 2704 2171 4319 194 909 255 1923
171 2840 -236 2562 -1546 4988 -3572 6612 -497 399 -1063 763 -1620 1041 -558
280 -1461 632 -2043 798 -386 110 -897 190 -1510 235 -202 15 -1092 27 -1290
18z m675 -3064 c666 -36 1383 -176 1968 -384 2244 -799 3924 -2847 4271 -5211
49 -332 60 -495 61 -880 0 -378 -7 -499 -51 -824 -98 -735 -341 -1504 -678
-2156 -753 -1451 -2041 -2590 -3561 -3147 -487 -179 -1009 -296 -1565 -354
-211 -21 -759 -30 -986 -15 -1072 70 -2093 390 -2999 939 -1775 1077 -2909
2895 -3122 5002 -24 245 -24 823 0 1070 128 1275 588 2425 1379 3441 242 311
670 755 963 998 790 657 1644 1091 2595 1320 696 168 1216 228 1725 201z"/>
<path d="M17005 31189 c-766 -78 -1408 -462 -1821 -1089 -211 -321 -340 -668
-401 -1075 -26 -182 -24 -562 5 -750 113 -727 478 -1321 1052 -1714 297 -204
653 -341 1055 -408 158 -26 631 -26 790 0 748 123 1347 507 1730 1108 79 123
199 365 250 503 347 940 122 2016 -565 2707 -191 192 -383 333 -610 448 -250
128 -496 206 -795 252 -149 24 -539 34 -690 18z"/>
<path d="M17121 8535 c-211 -48 -391 -137 -514 -254 -146 -139 -235 -301 -268
-485 -16 -97 -6 -291 21 -386 46 -165 182 -396 291 -496 136 -124 321 -174
644 -174 254 0 428 33 547 103 157 92 314 324 375 554 36 137 38 347 5 472
-73 269 -241 472 -487 588 -140 65 -225 84 -400 89 -107 3 -168 0 -214 -11z"/>
</g>
</svg>
