<?xml version="1.0" standalone="no"?>
<!DOCTYPE svg PUBLIC "-//W3C//DTD SVG 20010904//EN"
 "http://www.w3.org/TR/2001/REC-SVG-20010904/DTD/svg10.dtd">
<svg version="1.0" xmlns="http://www.w3.org/2000/svg"
 width="12806.000000pt" height="9737.000000pt" viewBox="0 0 12806.000000 9737.000000"
 preserveAspectRatio="xMidYMid meet">

<g transform="translate(0.000000,9737.000000) scale(0.100000,-0.100000)"
fill="#ee3342" stroke="none">
<path d="M27500 97343 c-492 -3 -1521 -23 -1750 -33 -301 -14 -360 -20 -380
-40 -68 -68 -100 -908 -100 -2627 l0 -1033 835 0 835 0 0 -7187 0 -7188 -593
-244 c-777 -321 -939 -389 -1267 -536 -741 -331 -1500 -692 -2725 -1296 -412
-203 -1141 -562 -1620 -797 l-870 -428 -3 -1367 -2 -1367 3540 0 3540 0 0
-27220 0 -27220 -975 0 -975 0 0 -1735 0 -1735 -12495 0 -12495 0 0 -7645 0
-7645 64030 0 64030 0 0 7645 0 7645 -12500 0 -12500 0 0 1735 0 1735 -975 0
-975 0 0 27220 0 27220 3545 0 3545 0 0 1373 -1 1372 -1487 717 c-2291 1106
-3442 1652 -4232 2010 -413 187 -576 255 -987 408 l-383 144 0 7193 0 7193
840 0 840 0 0 118 c0 151 -68 3205 -76 3420 l-6 162 -5769 0 -5769 0 0 -1813
0 -1813 743 -37 c408 -21 768 -41 800 -44 l57 -6 0 -3951 c0 -5171 -14 -6437
-76 -7121 -22 -241 -53 -385 -83 -385 -6 0 -65 18 -133 40 -701 225 -3489 924
-5208 1305 -6088 1348 -12772 2158 -19555 2370 -1499 46 -2481 59 -4185 52
-1345 -6 -1716 -11 -2680 -37 -7021 -191 -13858 -1006 -20135 -2400 -1710
-379 -4508 -1083 -5159 -1297 l-110 -36 -17 22 c-52 64 -86 411 -109 1106 -26
799 -32 1703 -37 5891 l-5 4441 68 6 c38 4 399 23 802 44 l732 37 0 1813 0
1813 -387 0 c-214 0 -1544 9 -2958 20 -2185 17 -4773 22 -6035 13z m5430
-4736 c-553 -552 -1100 -1093 -1215 -1203 -372 -352 -598 -554 -622 -554 -51
0 -778 699 -2013 1934 l-825 826 2840 0 2840 0 -1005 -1003z m65870 984 c601
-26 909 -55 910 -84 0 -4 -32 -35 -72 -69 -263 -226 -967 -934 -1907 -1918
-376 -393 -698 -730 -715 -747 l-31 -33 -1435 1436 -1435 1435 2220 -4 c1379
-3 2313 -9 2465 -16z m-69675 -4787 l-1205 -1205 0 2410 0 2410 1205 -1205
1205 -1205 -1205 -1205z m67032 1110 c-435 -424 -1012 -987 -1282 -1254 -489
-481 -1041 -1000 -1065 -1000 -36 0 -60 1378 -60 3430 l0 1335 1230 -1230
1230 -1230 -53 -51z m3947 2354 c17 -212 26 -1164 26 -2843 l0 -1830 -1207
1208 -1208 1207 1040 1038 c980 978 1312 1302 1333 1302 5 0 12 -37 16 -82z
m-65887 -108 c58 -256 89 -1320 80 -2710 -8 -1071 -27 -1764 -51 -1787 -12
-12 -371 319 -833 768 -779 759 -1564 1532 -1561 1540 6 16 1153 1172 1390
1400 569 548 911 853 948 847 9 -2 19 -25 27 -58z m-3036 -3043 c197 -164 743
-694 1669 -1621 l675 -676 -2415 0 -2415 0 650 651 c664 665 1225 1215 1468
1442 150 138 286 257 297 257 3 0 35 -24 71 -53z m65828 3 c203 -169 680 -632
1611 -1564 l735 -736 -2415 0 -2415 0 545 546 c1052 1054 1831 1804 1872 1804
4 0 34 -23 67 -50z m-64693 -4486 l-1206 -1205 -1205 1205 -1206 1206 2411 0
2411 0 -1205 -1206z m66556 724 c-626 -620 -861 -855 -1447 -1448 l-480 -485
-1207 1208 -1207 1207 2414 0 2414 0 -487 -482z m-69747 -3915 l-1205 -1205 0
2410 0 2410 1205 -1205 1205 -1205 -1205 -1205z m5084 3539 c14 -27 39 -171
50 -297 30 -318 35 -581 36 -1695 l0 -1145 -220 -78 c-121 -44 -384 -137 -585
-207 l-364 -127 -360 346 c-404 388 -939 911 -944 921 -5 12 1466 1496 1715
1731 334 315 503 467 602 537 51 37 57 38 70 14z m59707 -25 c86 -64 310 -262
549 -486 174 -163 1689 -1652 1749 -1719 18 -21 18 -22 -50 -95 -38 -40 -323
-332 -632 -649 l-564 -575 -286 98 c-158 53 -431 146 -607 206 l-320 110 1
1089 c0 1040 8 1410 34 1739 17 202 39 325 60 325 4 0 34 -20 66 -43z m6143
-39 c53 -312 73 -1239 69 -3186 l-3 -1492 -1197 1197 -1197 1198 686 730 c702
746 1134 1191 1371 1412 147 136 242 214 253 208 4 -3 12 -33 18 -67z m-68728
-3271 c298 -294 415 -421 450 -488 17 -35 17 -37 1 -53 -86 -77 -1124 -475
-1807 -693 -216 -68 -451 -130 -461 -121 -24 25 188 290 476 593 175 184 1033
1055 1040 1055 3 0 138 -132 301 -293z m65678 241 c224 -169 918 -842 1208
-1173 187 -212 321 -400 300 -421 -30 -30 -743 202 -1487 483 -261 99 -568
214 -682 254 -115 41 -207 77 -205 81 3 9 419 459 542 587 106 110 241 231
258 231 6 0 35 -19 66 -42z m-64694 -10172 l-1205 -1205 -1204 1205 -1204
1204 2408 0 2409 0 -1204 -1204z m8105 1185 c134 -6 248 -15 252 -19 12 -12
-507 -544 -1456 -1492 l-816 -815 -1173 1173 -1172 1173 2060 -4 c1243 -3
2157 -10 2305 -16z m6500 -1166 l-1185 -1185 -686 687 c-608 611 -1335 1361
-1508 1558 -61 70 -61 70 -36 77 43 11 500 29 940 37 226 4 1141 8 2035 9
l1625 2 -1185 -1185z m7337 -20 l-1205 -1205 -458 463 c-567 571 -908 913
-1495 1495 l-456 452 2410 0 2409 0 -1205 -1205z m8113 1186 c129 -6 238 -15
243 -20 14 -14 -293 -329 -1335 -1375 l-927 -931 -1173 1173 -1173 1173 2065
-5 c1244 -3 2158 -9 2300 -15z m7100 -567 c-1041 -1043 -1661 -1632 -1825
-1733 l-30 -19 -179 191 c-303 324 -773 813 -1416 1472 -338 347 -624 641
-634 653 l-19 22 2344 0 2344 0 -585 -586z m6733 -618 l-1204 -1205 -1204
1205 -1205 1204 2409 0 2409 0 -1205 -1204z m7327 1194 c550 -10 969 -26 1016
-39 l28 -7 -85 -94 c-90 -101 -112 -124 -664 -700 -466 -486 -1485 -1530
-1493 -1530 -4 0 -543 536 -1197 1190 l-1190 1190 1530 0 c842 0 1766 -5 2055
-10z m8140 -9 c134 -7 248 -15 253 -20 11 -11 -565 -600 -1492 -1526 l-781
-780 -1173 1173 -1172 1173 2060 -4 c1285 -3 2152 -9 2305 -16z m6475 -1187
l-1205 -1205 -537 543 c-660 668 -663 671 -1331 1331 l-544 537 2412 0 2411 0
-1206 -1206z m-69975 257 c660 -546 2100 -2035 2100 -2171 0 -127 -1733 -1920
-2160 -2234 -34 -25 -68 -46 -75 -46 -42 0 -70 282 -97 965 -16 412 -16 2225
0 2655 16 426 30 659 47 802 20 154 20 153 57 130 16 -11 74 -56 128 -101z
m20638 9 c54 -322 76 -1188 69 -2615 -6 -1021 -14 -1405 -37 -1688 -11 -128
-16 -157 -30 -157 -40 0 -795 728 -1389 1340 -516 532 -758 800 -794 879 -50
113 17 247 267 531 382 433 1558 1581 1816 1771 64 48 65 48 76 26 6 -12 16
-51 22 -87z m7342 85 c26 -69 52 -356 72 -805 18 -390 18 -2565 0 -2955 -21
-475 -46 -762 -66 -782 -40 -41 -767 640 -1946 1821 l-455 456 505 506 c803
804 1431 1412 1690 1636 68 59 181 148 188 148 1 0 7 -11 12 -25z m43915 -144
c45 -352 60 -877 60 -2136 0 -1082 -7 -1454 -35 -1880 -19 -279 -35 -385 -61
-385 -17 0 -136 91 -254 195 -311 272 -1114 1068 -1509 1495 -224 242 -405
455 -454 534 -33 52 -33 55 -18 84 135 261 1895 2056 2196 2241 l35 21 13 -32
c7 -17 20 -79 27 -137z m-65848 99 c16 -73 40 -338 53 -585 42 -849 37 -2692
-11 -3495 -12 -213 -34 -399 -48 -413 -41 -41 -642 517 -1746 1622 l-650 651
675 676 c1059 1060 1645 1612 1700 1602 9 -2 19 -25 27 -58z m2338 -1152
l1070 -1067 -1173 -1173 -1174 -1173 6 2000 c4 1788 13 2512 32 2598 l6 28 81
-73 c45 -40 563 -553 1152 -1140z m4939 1123 c17 -227 26 -1141 26 -2766 l0
-1770 -1172 1172 -1173 1173 670 671 c682 683 1623 1609 1635 1609 4 0 10 -40
14 -89z m1321 -57 c290 -263 683 -646 1415 -1379 l755 -755 -900 -898 c-1065
-1063 -1420 -1401 -1445 -1376 -29 29 -47 473 -61 1467 -18 1306 13 3008 57
3078 9 15 31 -2 179 -137z m7218 102 c235 -176 885 -797 1880 -1793 l437 -438
-847 -846 c-795 -792 -1012 -1003 -1258 -1225 -128 -115 -253 -214 -269 -214
-42 0 -75 377 -96 1080 -13 423 -13 1988 0 2425 20 702 48 1055 83 1055 7 0
38 -20 70 -44z m13417 -371 c6 -192 13 -1218 16 -2280 l6 -1930 -1177 1175
-1176 1175 888 884 c488 486 1007 999 1153 1139 l264 256 8 -35 c4 -19 12
-191 18 -384z m1725 -113 c286 -281 799 -789 1140 -1131 l620 -621 -1173
-1173 -1172 -1172 0 1815 c0 1658 9 2529 26 2732 6 67 9 76 23 69 9 -5 250
-239 536 -519z m5599 482 c34 -255 47 -909 52 -2804 l6 -1775 -757 755 c-416
415 -950 952 -1188 1193 l-431 439 879 877 c484 482 954 947 1045 1032 206
193 362 329 376 329 6 0 14 -21 18 -46z m1204 1 c239 -180 751 -667 1707
-1624 l610 -611 -595 -596 c-1093 -1095 -1725 -1692 -1779 -1682 -23 5 -38 78
-55 263 -82 877 -71 3731 15 4220 16 92 15 92 97 30z m6121 13 c27 -83 53
-423 73 -958 16 -429 16 -2159 0 -2605 -25 -683 -49 -965 -84 -965 -12 0 -113
78 -213 164 -297 257 -715 659 -1485 1431 l-685 685 825 823 c774 772 997 989
1265 1231 132 119 265 226 281 226 7 0 17 -15 23 -32z m1276 -32 c283 -227
1286 -1202 1694 -1646 322 -350 413 -513 355 -635 -52 -111 -572 -663 -1355
-1440 -508 -504 -798 -775 -828 -775 -67 0 -96 2772 -41 3905 17 335 45 612
66 646 11 18 32 7 109 -55z m6016 -196 c6 -152 13 -1026 16 -2305 l5 -2060
-1174 1172 -1173 1173 750 751 c903 904 1546 1532 1556 1522 5 -5 13 -119 20
-253z m2424 -962 l1060 -1057 -1173 -1173 -1174 -1173 5 2020 c5 1813 14 2528
33 2588 9 28 103 -63 1249 -1205z m4936 987 c7 -137 13 -1011 16 -2305 l4
-2085 -1173 1172 -1173 1173 700 701 c886 887 1596 1582 1607 1571 4 -4 13
-107 19 -227z m1206 162 c265 -211 679 -607 1563 -1492 l715 -715 -840 -838
c-462 -461 -930 -922 -1040 -1024 -300 -278 -464 -418 -491 -418 -41 0 -73
353 -94 1025 -40 1345 -4 3288 66 3518 3 9 11 17 18 17 7 0 53 -33 103 -73z
m-36462 -131 c127 -60 302 -224 819 -771 176 -187 532 -560 789 -828 l468
-488 -1168 -1163 -1168 -1163 -6 1646 c-8 2333 0 2577 93 2729 39 64 93 76
173 38z m-26314 -2899 c192 -159 711 -662 1589 -1541 l755 -756 -2415 0 -2415
0 670 671 c1047 1048 1702 1679 1745 1679 3 0 35 -24 71 -53z m14567 14 c164
-130 628 -580 1577 -1530 l780 -781 -2415 0 -2415 0 480 481 c435 435 1312
1295 1607 1576 145 138 319 293 329 293 4 0 30 -18 57 -39z m7427 -58 c228
-199 1055 -1006 1915 -1867 l385 -386 -2420 0 -2420 1 815 812 c965 961 1434
1413 1564 1508 46 34 43 36 161 -68z m14534 43 c177 -143 818 -766 1736 -1685
l610 -611 -2390 0 -2389 0 155 158 c85 86 421 429 746 762 325 333 604 616
619 629 16 13 173 166 349 340 294 291 476 461 491 461 4 0 37 -24 73 -54z
m7387 -22 c197 -169 581 -541 1429 -1386 l890 -887 -2415 -1 -2415 0 720 721
c1059 1060 1650 1629 1694 1629 5 0 48 -34 97 -76z m7345 13 c187 -161 995
-947 1754 -1706 l580 -581 -2415 0 -2415 0 700 701 c706 707 1185 1177 1438
1412 142 131 266 237 277 237 4 0 40 -29 81 -63z m14581 2 c180 -150 517 -478
1393 -1351 l940 -938 -2415 0 -2415 0 595 596 c1049 1050 1780 1754 1822 1754
4 0 40 -27 80 -61z m-57447 -1119 l1170 -1170 -2345 0 -2345 0 1170 1170 c643
644 1172 1170 1175 1170 3 0 532 -526 1175 -1170z m51250 0 l1170 -1170 -2345
0 -2345 0 1170 1170 c643 644 1172 1170 1175 1170 3 0 532 -526 1175 -1170z
m-30283 974 c470 -399 827 -759 2092 -2111 l30 -33 -2333 0 -2334 0 1159 1164
c638 640 1162 1164 1166 1163 4 -1 103 -83 220 -183z m-28260 -4366 l-1242
-1243 -813 815 c-760 762 -1091 1104 -1302 1345 -104 118 -165 197 -165 213 0
40 373 72 1055 92 494 15 544 15 2225 18 l1485 2 -1243 -1242z m9235 715 c-4
-422 -8 -543 -20 -603 -39 -193 -89 -258 -243 -317 -112 -43 -212 -109 -369
-244 -342 -293 -519 -573 -580 -919 -25 -142 -38 -428 -31 -685 11 -437 53
-600 208 -807 79 -106 358 -386 463 -465 332 -250 654 -374 1035 -398 282 -18
637 56 909 190 348 171 606 430 786 790 85 172 134 312 170 487 153 758 -124
1497 -700 1875 -222 146 -262 178 -340 276 -106 133 -169 281 -201 472 -23
143 -14 407 24 667 15 109 30 200 33 202 13 13 13498 -59 13510 -72 4 -4 19
-190 35 -415 25 -358 27 -419 16 -505 -24 -193 -103 -294 -354 -454 -201 -128
-324 -222 -434 -332 -569 -569 -725 -1450 -384 -2162 98 -204 275 -437 445
-585 615 -538 1529 -584 2230 -114 549 368 840 986 787 1674 -26 330 -108 600
-255 836 -148 238 -326 407 -599 571 -273 163 -357 259 -404 464 -15 64 -18
148 -21 588 l-4 513 898 -6 c494 -3 2010 -10 3368 -15 2201 -9 9258 -49 9261
-53 1 -1 7 -117 13 -257 6 -140 16 -347 23 -460 25 -446 -28 -557 -368 -765
-283 -173 -501 -381 -657 -628 -107 -167 -206 -421 -243 -622 -27 -142 -27
-488 0 -630 55 -298 203 -606 408 -850 292 -347 644 -564 1057 -652 114 -24
147 -27 341 -27 184 -1 231 2 325 21 154 32 268 66 393 119 232 100 412 222
597 408 275 277 441 601 511 996 14 81 19 155 19 320 0 328 -29 470 -144 705
-112 228 -296 481 -501 685 -203 203 -377 314 -516 328 -39 4 -83 16 -97 25
-93 61 -106 250 -62 911 13 202 25 369 27 371 5 5 6651 44 9263 55 1353 5
2866 12 3363 15 l902 6 0 -438 c0 -444 -8 -610 -36 -718 -42 -162 -123 -254
-334 -380 -175 -104 -282 -188 -405 -316 -403 -420 -565 -1045 -429 -1657 143
-646 573 -1140 1180 -1356 440 -156 614 -169 955 -70 258 75 458 162 629 274
515 339 810 891 810 1518 0 304 -75 615 -219 908 -180 367 -417 622 -696 749
-197 89 -273 182 -311 376 -13 68 -17 179 -21 597 l-5 512 3121 0 3121 0 0
-23470 0 -23470 -970 0 -970 0 0 -1735 0 -1735 -26795 0 c-25512 0 -26795 1
-26795 18 0 9 -18 746 -40 1637 -22 891 -40 1648 -40 1682 l0 62 -42 5 c-24 3
-423 21 -888 41 -465 19 -869 38 -897 41 l-53 5 0 23460 0 23459 3121 0 3121
0 -5 -527z m56773 508 c639 -24 948 -50 995 -85 13 -9 8 -20 -32 -71 -174
-224 -462 -525 -1405 -1470 l-838 -840 -1242 1243 -1243 1244 1740 -5 c957 -3
1868 -10 2025 -16z m-69165 -4377 l-1205 -1205 0 2410 0 2410 1205 -1205 1205
-1205 -1205 -1205z m70979 3459 c17 -225 26 -1159 26 -2838 l0 -1830 -1207
1208 -1208 1207 1030 1028 c976 974 1322 1312 1343 1312 5 0 12 -39 16 -87z
m-65887 -103 c16 -73 40 -338 53 -585 42 -844 36 -2706 -10 -3495 -12 -201
-34 -391 -48 -415 -7 -13 -22 -6 -87 44 -243 186 -615 540 -1535 1458 l-775
773 785 783 c432 430 871 864 977 964 368 347 585 535 613 530 9 -1 19 -24 27
-57z m59743 -17 c270 -217 591 -524 1460 -1390 l815 -813 -840 -838 c-462
-461 -917 -911 -1012 -999 -294 -275 -491 -443 -519 -443 -18 0 -31 54 -48
206 -41 357 -59 1002 -59 2079 0 1077 19 1769 58 2116 16 137 21 159 39 159 7
0 54 -34 106 -77z m-62754 -3049 c199 -169 573 -532 1424 -1381 l895 -893
-2415 0 -2415 0 645 646 c669 670 1204 1195 1470 1443 153 142 289 261 301
261 3 0 46 -34 95 -76z m65912 -69 c226 -205 737 -703 1462 -1429 l775 -776
-2415 0 -2415 1 820 817 c965 961 1424 1404 1559 1503 l39 29 39 -29 c22 -16
83 -68 136 -116z m-64802 -4391 l-1206 -1205 -1205 1205 -1206 1206 2411 0
2412 0 -1206 -1206z m66541 709 c-635 -629 -808 -802 -1417 -1418 l-495 -500
-1207 1208 -1207 1207 2414 0 2414 0 -502 -497z m-69732 -3900 l-1205 -1205 0
2410 0 2410 1205 -1205 1205 -1205 -1205 -1205z m5084 3525 c37 -120 64 -568
81 -1338 5 -250 10 -1116 10 -1925 l0 -1470 -1242 1242 -1243 1243 510 511
c1097 1099 1804 1769 1866 1769 4 0 12 -15 18 -32z m59792 -72 c267 -223 708
-648 1611 -1553 l628 -628 -1245 -1245 -1245 -1245 0 1330 c0 1680 15 2542 50
3055 18 249 41 390 65 390 7 0 68 -47 136 -104z m6103 7 c17 -225 26 -1159 26
-2838 l0 -1830 -1207 1208 -1208 1208 1015 1012 c951 949 1338 1327 1359 1327
5 0 11 -39 15 -87z m-68278 -3745 c428 -431 858 -866 955 -968 341 -360 539
-583 539 -608 0 -63 -1143 -112 -2615 -112 -1215 0 -1945 34 -1945 89 0 29
296 368 630 721 202 214 1640 1660 1650 1660 3 0 357 -352 786 -782z m65980
-10 c1004 -1009 1378 -1402 1478 -1559 17 -27 17 -27 -15 -38 -76 -26 -349
-50 -849 -72 -137 -7 -1000 -13 -2065 -16 l-1830 -4 1240 1240 c682 683 1242
1241 1245 1241 3 0 361 -357 796 -792z m-64735 -3120 c-587 -583 -949 -945
-1507 -1508 l-452 -455 -1207 1208 -1207 1207 2415 0 2414 0 -456 -452z
m65738 -95 c-305 -302 -792 -789 -1084 -1083 -291 -295 -586 -592 -655 -662
l-125 -126 -1208 1209 -1207 1209 2416 0 2416 0 -553 -547z m-70718 -343 c333
-250 1321 -1215 1844 -1800 243 -272 341 -404 331 -444 -25 -101 -621 -751
-1367 -1491 -591 -585 -853 -817 -879 -774 -33 52 -59 363 -82 964 -16 425
-16 2223 0 2655 24 638 50 940 80 940 4 0 37 -23 73 -50z m6118 18 c61 -191
98 -1285 88 -2613 -9 -1083 -35 -1730 -78 -1888 -10 -37 -10 -37 -37 -23 -34
18 -183 142 -337 281 -274 246 -609 573 -1300 1265 l-730 731 730 727 c718
715 1023 1011 1300 1266 147 134 329 286 345 286 4 0 13 -15 19 -32z m59697
-5 c242 -182 778 -690 1702 -1615 l633 -634 -783 -779 c-909 -905 -1339 -1316
-1533 -1462 -52 -39 -60 -43 -71 -29 -36 50 -63 373 -85 1031 -15 441 -16
2048 -1 2505 22 673 50 1020 82 1020 4 0 29 -17 56 -37z m6134 11 c25 -64 52
-374 71 -814 16 -380 23 -1976 10 -2500 -20 -814 -48 -1214 -86 -1227 -6 -2
-48 26 -95 61 -386 290 -1771 1688 -2082 2101 -88 116 -88 115 -45 178 224
338 1833 1978 2152 2193 27 19 53 34 58 34 4 0 12 -12 17 -26z m-68835 -3102
c212 -181 923 -873 1805 -1756 l515 -516 -2415 0 -2415 0 405 406 c518 519
1450 1436 1650 1624 212 198 341 310 360 310 8 0 51 -31 95 -68z m65829 3
c223 -191 805 -757 1706 -1659 l615 -616 -2410 0 -2410 0 795 796 c1063 1063
1565 1544 1615 1544 6 0 46 -29 89 -65z m-64209 -3415 c220 -6 423 -14 450
-18 l50 -8 -195 -204 c-107 -112 -621 -632 -1142 -1154 l-947 -951 -1173 1173
-1173 1172 1865 0 c1026 0 2045 -5 2265 -10z m65361 -1159 c-645 -645 -1175
-1167 -1180 -1163 -6 3 -371 357 -811 787 -819 799 -1181 1150 -1432 1385 -79
73 -140 136 -137 139 12 13 692 17 2659 19 l2070 2 -1169 -1169z m-69061 -676
c165 -165 505 -504 756 -752 l455 -453 -130 -127 c-383 -374 -1238 -1227
-1728 -1722 l-558 -563 0 2414 0 2415 452 -456 c249 -251 588 -591 753 -756z
m70978 1068 c18 -226 28 -1344 25 -2926 l-3 -1747 -1202 1202 -1202 1203 962
965 c865 867 1388 1380 1407 1380 4 0 10 -35 13 -77z m-65894 -85 c16 -44 38
-242 51 -443 21 -350 31 -722 37 -1470 8 -1027 -13 -1967 -52 -2390 -17 -178
-26 -227 -41 -232 -5 -2 -57 35 -114 81 -272 218 -658 585 -1545 1468 l-730
727 715 716 c985 988 1439 1421 1624 1552 41 29 42 29 55 -9z m59684 3 c200
-138 804 -710 1785 -1693 l563 -564 -778 -775 c-773 -770 -1067 -1055 -1337
-1296 -137 -123 -250 -213 -266 -213 -23 0 -50 207 -70 530 -46 763 -46 2762
1 3560 16 280 39 480 56 480 2 0 23 -13 46 -29z m-62673 -3113 c227 -198 1054
-1005 1920 -1872 l395 -396 -2420 0 -2420 0 815 816 c1070 1071 1554 1534
1604 1534 6 0 54 -37 106 -82z m65836 -4 c216 -188 617 -578 1444 -1401 l865
-862 -2420 -1 -2420 0 725 726 c1112 1114 1645 1624 1694 1624 8 0 58 -39 112
-86z m-64744 -4450 l-1206 -1206 -130 133 c-426 434 -1237 1249 -1720 1727
l-558 552 2410 0 2410 0 -1206 -1206z m65833 2 l-1204 -1205 -458 462 c-566
571 -897 902 -1489 1490 l-461 457 2408 0 2408 0 -1204 -1204z m-69020 -3189
l-1205 -1205 0 2410 0 2410 1205 -1205 1205 -1205 -1205 -1205z m64881 3366
c109 -103 644 -631 1187 -1173 l988 -985 -443 -440 c-244 -242 -791 -786
-1217 -1210 l-773 -770 6 2020 c6 2178 15 2745 45 2745 4 0 97 -84 207 -187z
m6098 95 c17 -239 26 -1155 26 -2838 l0 -1835 -1205 1205 c-663 663 -1204
1208 -1203 1212 2 4 428 434 948 954 854 855 1403 1394 1421 1394 3 0 9 -42
13 -92z m-65882 46 c13 -47 36 -323 47 -559 43 -914 38 -2729 -10 -3535 -12
-213 -34 -399 -48 -413 -14 -14 -65 23 -215 151 -281 240 -638 583 -1591 1525
l-549 544 675 699 c1050 1086 1620 1639 1672 1621 6 -2 15 -17 19 -33z m-2680
-3536 c271 -265 812 -797 1202 -1182 l709 -701 -49 -2 c-27 -2 -548 -12 -1159
-23 -1632 -30 -3424 -25 -3457 8 -22 22 218 312 591 712 163 175 1651 1670
1662 1670 4 0 229 -217 501 -482z m65513 308 c249 -208 834 -767 1380 -1317
406 -409 855 -877 855 -890 0 -35 -1382 -59 -3420 -59 l-1345 0 910 908 c1015
1011 1465 1442 1508 1442 6 0 57 -38 112 -84z m-64740 -4450 l-1205 -1204
-1204 1204 -1204 1204 2408 0 2409 0 -1204 -1204z m65830 -1 l-1205 -1205
-512 517 c-632 639 -745 752 -1386 1386 l-512 507 2410 0 2410 0 -1205 -1205z
m-69997 275 c594 -480 2074 -2001 2118 -2175 7 -30 -33 -92 -149 -230 -532
-634 -1975 -2065 -2082 -2065 -26 0 -47 109 -65 345 -71 916 -61 3462 15 4077
8 64 18 123 21 132 8 21 23 12 142 -84z m71917 -69 c17 -133 31 -345 47 -716
17 -394 17 -2437 0 -2850 -25 -595 -48 -835 -80 -835 -112 0 -1641 1508 -2113
2083 -49 59 -100 128 -115 152 l-26 45 25 43 c179 301 1867 2022 2176 2219
l46 29 13 -32 c7 -18 20 -80 27 -138z m-65848 99 c17 -74 41 -341 53 -585 42
-861 37 -2693 -11 -3495 -12 -212 -34 -399 -48 -413 -12 -12 -40 5 -136 83
-260 211 -639 573 -1490 1422 l-770 768 810 808 c446 444 892 885 993 980 342
322 544 495 572 490 9 -2 19 -25 27 -58z m59739 -11 c257 -206 575 -509 1454
-1386 l825 -823 -685 -686 c-884 -885 -1311 -1296 -1560 -1503 -105 -87 -128
-100 -140 -81 -67 109 -114 1619 -91 2960 14 839 33 1298 62 1490 13 85 18
100 33 100 7 0 53 -32 102 -71z m-62776 -3030 c198 -165 702 -654 1625 -1578
l720 -721 -2415 0 -2415 0 690 691 c1070 1071 1682 1659 1726 1659 5 0 36 -23
69 -51z m65818 12 c163 -129 636 -588 1587 -1540 l770 -771 -2415 0 -2415 0
625 626 c1044 1046 1749 1724 1791 1724 4 0 30 -18 57 -39z m-63783 -3633
c-110 -112 -378 -383 -596 -603 -218 -220 -589 -600 -824 -845 -236 -245 -493
-511 -571 -591 l-143 -145 -1193 1193 -1193 1193 2360 0 2360 0 -200 -202z
m64950 -988 c-654 -654 -1193 -1190 -1196 -1190 -3 0 -244 246 -534 548 -291
301 -814 836 -1163 1190 l-634 642 2358 0 2359 0 -1190 -1190z m-68965 -727
l995 -992 -1139 -1 -1138 0 5 968 c5 870 14 1202 33 1234 10 16 224 -193 1244
-1209z m70920 922 c5 -126 10 -609 10 -1072 l0 -843 -1137 0 -1138 1 920 917
c507 504 1011 1002 1120 1107 l199 189 8 -34 c4 -19 12 -138 18 -265z m-65894
129 c55 -132 65 -559 30 -1368 -14 -329 -27 -600 -28 -601 -2 -2 -442 -19
-978 -39 -536 -20 -1031 -39 -1100 -42 l-125 -7 614 621 c544 551 948 947
1196 1172 150 135 354 300 373 300 2 0 10 -16 18 -36z m59751 -53 c250 -201
820 -753 1625 -1573 l410 -418 -1131 0 -1131 0 0 578 c1 794 16 1152 60 1370
19 95 32 122 56 122 7 0 57 -36 111 -79z"/>
<path d="M12490 46119 l0 -9591 903 6 c496 4 1838 11 2982 17 1144 5 3264 18
4710 29 1447 11 2669 20 2718 20 l87 0 0 9489 0 9489 -32 11 c-44 16 -245 38
-453 50 -877 53 -2722 71 -7502 71 l-3413 0 0 -9591z m6120 7457 c320 -50 668
-170 926 -321 669 -391 1102 -1053 1231 -1885 25 -165 25 -586 -1 -755 -82
-542 -319 -1024 -681 -1389 -405 -408 -939 -673 -1530 -758 -119 -17 -502 -17
-625 1 -293 40 -576 127 -835 255 -532 264 -932 662 -1186 1181 -118 241 -188
471 -230 760 -18 116 -18 500 -1 620 84 596 298 1067 671 1481 391 436 981
742 1566 813 50 6 104 13 120 15 72 10 476 -3 575 -18z m-95 -7401 c489 -52
961 -191 1440 -425 680 -332 1207 -815 1594 -1462 78 -131 223 -436 280 -588
293 -792 328 -1697 95 -2517 -114 -401 -310 -810 -547 -1142 -184 -257 -463
-553 -702 -744 -135 -109 -411 -293 -565 -377 -437 -240 -918 -393 -1440 -457
-202 -24 -647 -24 -850 0 -1164 143 -2168 775 -2847 1792 -348 522 -554 1083
-625 1700 -16 142 -16 558 0 700 95 833 446 1576 1054 2236 694 753 1529 1195
2433 1288 138 14 529 12 680 -4z"/>
<path d="M17990 52359 c-244 -30 -441 -82 -549 -146 -82 -49 -221 -195 -301
-315 -83 -126 -200 -366 -249 -514 -63 -189 -84 -307 -85 -464 0 -122 2 -143
27 -213 151 -433 659 -941 1087 -1088 81 -27 244 -36 362 -20 468 67 1033 393
1168 676 80 168 149 606 136 860 -34 622 -412 1077 -1006 1210 -88 20 -469 29
-590 14z"/>
<path d="M17896 44989 c-249 -23 -512 -75 -710 -141 -308 -101 -600 -290 -871
-562 -497 -500 -801 -1168 -844 -1852 -17 -265 7 -505 75 -750 239 -873 890
-1594 1739 -1927 618 -243 1292 -257 1915 -42 600 207 1109 688 1440 1360 228
461 332 892 333 1370 0 207 -11 325 -49 512 -90 453 -299 800 -753 1253 -506
504 -843 683 -1441 766 -137 19 -681 27 -834 13z m637 -1403 c247 -64 451
-189 673 -410 281 -282 354 -421 354 -675 0 -130 -21 -321 -50 -453 -172 -791
-895 -1241 -1607 -1003 -197 66 -367 171 -531 329 -320 308 -485 709 -442
1070 38 318 189 589 450 808 227 192 455 309 690 353 118 23 339 14 463 -19z"/>
<path d="M104024 54168 c4 -849 11 -3071 16 -4938 10 -3401 49 -12622 53
-12627 5 -4 5548 -43 7587 -53 1119 -5 2450 -12 2958 -16 l922 -6 0 9591 0
9591 -5771 0 -5771 0 6 -1542z m6106 -592 c617 -84 1203 -381 1579 -799 344
-382 543 -837 613 -1397 18 -148 18 -913 0 -1029 -19 -116 -46 -200 -102 -312
-143 -287 -419 -648 -727 -950 -266 -261 -413 -359 -723 -482 -305 -122 -579
-172 -925 -171 -297 1 -519 36 -785 124 -969 319 -1666 1142 -1796 2120 -21
162 -22 453 0 621 76 603 316 1111 716 1523 300 309 626 513 1030 646 196 65
362 98 625 124 76 8 390 -4 495 -18z m25 -7416 c492 -43 962 -169 1370 -370
347 -171 632 -386 975 -736 236 -241 415 -462 587 -722 342 -521 516 -997 595
-1632 21 -166 17 -672 -5 -840 -119 -879 -497 -1645 -1117 -2260 -625 -621
-1425 -1005 -2330 -1117 -205 -25 -697 -25 -895 0 -1095 140 -2060 705 -2678
1569 -312 438 -521 963 -606 1528 -99 653 -71 1413 70 1920 33 117 104 308
164 440 269 587 693 1099 1225 1480 478 342 1036 579 1610 684 124 22 339 51
450 59 108 8 475 6 585 -3z"/>
<path d="M109705 52379 c-121 -15 -279 -53 -390 -94 -384 -142 -636 -406 -769
-805 -59 -177 -77 -284 -83 -490 -8 -289 27 -481 129 -690 45 -94 61 -115 152
-206 274 -273 755 -485 1136 -501 119 -5 145 -3 214 16 439 121 1016 697 1137
1137 19 69 21 95 16 214 -17 399 -250 907 -538 1174 -118 109 -307 191 -539
232 -106 19 -359 26 -465 13z"/>
<path d="M109425 44999 c-320 -30 -636 -115 -845 -226 -391 -210 -869 -683
-1177 -1166 -85 -134 -203 -372 -236 -478 -61 -196 -82 -386 -82 -754 0 -276
3 -327 24 -465 28 -185 85 -417 136 -555 55 -149 163 -366 243 -486 98 -148
349 -446 522 -620 362 -363 633 -498 1130 -565 164 -22 926 -32 1162 -15 431
31 659 110 1039 363 262 174 437 332 611 549 301 377 483 806 565 1329 25 164
25 633 0 805 -87 578 -310 1072 -681 1504 -360 418 -1055 713 -1841 781 -139
11 -439 11 -570 -1z m670 -1417 c210 -54 404 -172 594 -361 208 -207 323 -392
382 -616 30 -114 38 -384 15 -510 -102 -546 -529 -980 -1069 -1086 -188 -37
-432 -21 -617 41 -333 110 -636 377 -790 695 -93 191 -130 349 -130 555 0 206
37 364 130 555 181 374 534 649 945 735 125 27 421 22 540 -8z"/>
<path d="M0 25980 l0 -9590 5695 0 5695 0 0 9590 0 9590 -5695 0 -5695 0 0
-9590z m5959 7395 c416 -52 870 -214 1186 -424 597 -396 1028 -1116 1130
-1886 19 -141 21 -430 5 -560 -51 -415 -222 -809 -519 -1200 -89 -118 -370
-403 -491 -499 -549 -436 -1248 -661 -1805 -581 -597 85 -1246 419 -1672 858
-324 335 -591 925 -680 1507 -12 79 -17 172 -17 295 0 157 4 196 28 307 58
274 137 500 261 753 235 478 573 849 1008 1107 279 166 603 276 942 322 140
19 472 20 624 1z m196 -7465 c449 -39 837 -118 1103 -226 169 -67 479 -257
687 -419 888 -692 1483 -1722 1611 -2785 22 -178 24 -541 5 -720 -121 -1157
-775 -2249 -1736 -2899 -491 -333 -970 -508 -1633 -598 -184 -25 -774 -25
-952 0 -760 107 -1382 371 -1960 833 -169 135 -444 410 -576 574 -507 635
-791 1353 -855 2160 -14 181 -6 558 16 740 76 625 235 1069 560 1560 172 261
332 456 570 699 553 564 1101 894 1680 1009 213 43 436 69 725 86 112 6 629
-3 755 -14z"/>
<path d="M5455 32205 c-275 -51 -566 -205 -765 -405 -182 -182 -298 -396 -356
-655 -21 -96 -30 -380 -14 -487 78 -539 430 -975 915 -1137 167 -55 241 -66
460 -66 225 0 305 12 480 72 648 223 1043 928 904 1615 -50 250 -159 450 -343
634 -198 196 -478 345 -783 415 -119 27 -385 35 -498 14z"/>
<path d="M5170 24809 c-275 -26 -494 -96 -752 -240 -227 -127 -407 -266 -613
-473 -342 -345 -582 -733 -730 -1181 -96 -290 -129 -515 -122 -820 5 -210 17
-309 66 -532 126 -577 441 -1128 860 -1500 687 -612 1626 -847 2505 -626 281
70 556 192 796 351 317 211 593 496 806 834 71 113 208 383 277 548 163 388
204 582 194 915 -36 1164 -637 2106 -1600 2509 -387 162 -772 227 -1332 225
-148 -1 -308 -5 -355 -10z m676 -1374 c251 -44 484 -168 740 -395 226 -201
340 -366 387 -560 57 -233 44 -608 -30 -845 -29 -95 -98 -229 -155 -303 -61
-79 -188 -194 -284 -258 -112 -73 -345 -187 -459 -223 -299 -96 -594 -78 -872
54 -481 227 -806 765 -779 1290 17 335 140 599 401 861 262 263 540 390 856
393 59 1 146 -6 195 -14z"/>
<path d="M12490 25981 l0 -9591 5735 0 5735 0 0 828 c0 455 -5 2125 -10 3712
-5 1587 -17 5513 -26 8725 -9 3212 -17 5841 -18 5842 -3 4 -5709 43 -7621 53
-1122 5 -2435 12 -2917 16 l-878 6 0 -9591z m6071 7419 c446 -54 886 -232
1229 -498 107 -83 315 -290 404 -402 151 -190 321 -482 406 -695 203 -508 263
-1022 175 -1498 -88 -478 -277 -810 -704 -1238 -376 -376 -752 -623 -1115
-734 -137 -41 -333 -80 -484 -96 -165 -17 -505 -7 -655 20 -421 75 -791 233
-1124 482 -128 96 -400 367 -494 494 -281 377 -452 803 -520 1295 -20 142 -17
507 4 650 42 271 117 511 236 755 407 830 1231 1394 2156 1475 114 10 361 5
486 -10z m-60 -7480 c573 -44 1064 -158 1404 -325 163 -80 368 -204 530 -319
1500 -1066 2056 -2997 1345 -4667 -251 -589 -653 -1113 -1175 -1529 -539 -429
-1177 -708 -1845 -804 -379 -55 -835 -46 -1215 25 -949 176 -1798 698 -2382
1465 -403 529 -681 1197 -768 1844 -35 262 -35 660 0 931 195 1499 1220 2798
2555 3239 210 70 457 117 730 139 153 12 664 13 821 1z"/>
<path d="M17880 32205 c-140 -32 -254 -106 -466 -304 -249 -233 -405 -425
-499 -616 -86 -175 -100 -237 -100 -445 1 -157 3 -185 27 -276 31 -118 89
-267 152 -392 136 -270 338 -478 584 -601 461 -231 1042 -165 1490 168 212
158 367 325 433 466 49 107 67 189 81 383 20 269 -9 552 -78 758 -183 549
-663 847 -1399 869 -119 4 -177 1 -225 -10z"/>
<path d="M17998 24845 c-513 -62 -1096 -310 -1519 -647 -766 -609 -1134 -1565
-973 -2528 73 -436 264 -863 554 -1240 96 -125 387 -413 524 -520 626 -486
1274 -662 1982 -539 415 72 868 252 1211 481 216 144 464 373 615 568 734 949
767 2325 79 3300 -379 538 -985 932 -1664 1084 -240 54 -565 70 -809 41z m517
-1428 c300 -76 488 -196 679 -430 177 -219 307 -482 362 -733 23 -105 23 -279
1 -361 -63 -237 -205 -469 -422 -691 -181 -187 -362 -311 -545 -374 -94 -33
-97 -33 -280 -33 -211 1 -291 14 -504 85 -341 115 -611 310 -711 515 -91 185
-153 535 -142 790 10 212 51 372 142 561 174 359 508 615 901 689 126 23 391
14 519 -18z"/>
<path d="M107360 35559 c-1677 -13 -2947 -43 -3192 -75 -28 -4 -49 -12 -52
-21 -19 -50 -40 -765 -56 -1913 -26 -1900 -32 -3465 -37 -10082 l-5 -7078
5771 0 5771 0 0 9590 0 9590 -3637 -2 c-2001 -1 -4054 -5 -4563 -9z m2672
-2164 c391 -61 744 -172 988 -312 281 -160 461 -294 661 -493 376 -373 570
-770 651 -1335 21 -143 17 -659 -5 -810 -87 -577 -292 -1032 -640 -1414 -363
-400 -915 -689 -1482 -776 -144 -22 -416 -30 -565 -16 -1217 116 -2240 1083
-2395 2264 -17 136 -20 394 -5 517 74 594 386 1228 835 1689 308 317 613 502
950 575 238 52 391 89 450 109 33 10 80 23 105 28 70 13 283 1 452 -26z m213
-7459 c691 -74 1200 -251 1710 -597 788 -533 1379 -1394 1615 -2354 80 -324
110 -573 110 -911 0 -331 -30 -582 -105 -875 -291 -1143 -1063 -2095 -2100
-2590 -1029 -491 -2184 -501 -3215 -29 -688 315 -1325 877 -1721 1519 -295
477 -474 997 -545 1581 -25 202 -25 638 0 840 97 798 382 1476 871 2077 110
135 397 421 533 531 383 310 825 550 1294 703 186 60 415 101 693 123 122 9
717 -3 860 -18z"/>
<path d="M109577 32195 c-178 -25 -370 -91 -512 -173 -107 -63 -274 -227 -350
-345 -100 -155 -169 -328 -217 -548 -20 -95 -22 -130 -23 -394 0 -236 3 -303
17 -362 48 -207 143 -345 363 -530 252 -212 485 -331 765 -390 120 -25 401
-25 520 1 350 75 632 269 832 571 110 165 182 339 220 530 29 142 28 363 -1
502 -59 281 -187 518 -392 722 -204 204 -457 342 -737 401 -128 27 -353 34
-485 15z"/>
<path d="M109607 24850 c-736 -57 -1449 -419 -1909 -970 -595 -712 -764 -1731
-443 -2669 321 -938 1075 -1606 2046 -1815 274 -59 574 -74 824 -41 464 61
935 270 1345 595 135 107 383 355 489 489 327 412 533 867 607 1341 26 163 26
531 1 683 -82 489 -285 945 -589 1330 -97 122 -320 347 -438 441 -332 265
-776 478 -1166 560 -246 52 -543 73 -767 56z m439 -1435 c372 -60 715 -303
882 -623 247 -474 233 -1113 -33 -1487 -287 -405 -1049 -642 -1494 -464 -406
162 -837 685 -911 1105 -16 89 -9 278 15 389 116 558 561 985 1125 1080 104
18 307 18 416 0z"/>
<path d="M116660 25980 l0 -9590 5700 0 5700 0 0 9590 0 9590 -5700 0 -5700 0
0 -9590z m6050 7385 c173 -27 326 -64 496 -120 424 -139 666 -286 950 -576
187 -192 329 -392 458 -649 148 -292 244 -591 293 -910 24 -160 24 -510 0
-670 -82 -534 -316 -1008 -690 -1396 -740 -770 -1821 -1019 -2767 -639 -719
289 -1217 793 -1518 1535 -281 694 -249 1297 104 2002 188 375 424 671 729
913 364 290 789 464 1275 524 117 15 547 6 670 -14z m-160 -7415 c597 -42
1052 -149 1445 -340 609 -295 1205 -831 1620 -1455 332 -500 484 -916 572
-1563 25 -184 25 -764 0 -942 -69 -486 -186 -868 -391 -1275 -197 -390 -406
-676 -725 -996 -319 -318 -604 -526 -996 -725 -418 -211 -832 -335 -1325 -396
-168 -21 -722 -17 -890 5 -392 53 -706 133 -980 249 -717 304 -1413 912 -1862
1625 -92 148 -250 463 -303 606 -93 254 -156 547 -197 917 -17 156 -17 766 0
925 81 746 256 1201 673 1755 173 230 476 549 701 738 447 376 989 676 1424
787 145 38 356 71 529 84 161 12 538 12 705 1z"/>
<path d="M122182 32199 c-329 -45 -681 -221 -897 -450 -163 -174 -266 -372
-316 -612 -29 -136 -31 -377 -5 -517 54 -282 185 -543 373 -741 193 -202 418
-331 696 -397 106 -25 125 -27 357 -26 211 0 258 3 340 21 219 48 367 133 569
328 145 140 247 271 319 412 102 198 142 366 142 593 0 231 -44 412 -151 621
-75 145 -160 258 -285 379 -201 194 -438 320 -709 375 -97 20 -333 27 -433 14z"/>
<path d="M121895 24813 c-413 -36 -818 -201 -1198 -490 -128 -98 -401 -368
-497 -493 -492 -642 -694 -1373 -569 -2060 30 -165 101 -444 155 -606 136
-408 253 -609 514 -878 381 -392 933 -733 1407 -866 675 -190 1422 -53 2072
382 646 433 1106 1079 1270 1788 58 249 73 585 37 820 -126 828 -767 1808
-1381 2110 -284 139 -696 244 -1129 285 -143 13 -561 19 -681 8z m468 -1368
c347 -46 754 -238 955 -450 226 -238 342 -525 342 -845 0 -564 -375 -1106
-895 -1293 -127 -45 -228 -61 -380 -61 -217 0 -362 38 -610 159 -303 148 -489
314 -605 541 -79 154 -147 413 -171 656 -31 309 51 460 484 885 398 390 535
454 880 408z"/>
</g>
</svg>
