<?xml version="1.0" encoding="utf-8"?>
<svg viewBox="0 0 1440 320" xmlns="http://www.w3.org/2000/svg">
  <path fill="#ee3342" fill-opacity="1" d="M0,288L120,288C240,288,480,288,720,240C960,192,1200,96,1320,48L1440,0L1440,320L1320,320C1200,320,960,320,720,320C480,320,240,320,120,320L0,320Z"/>
  <path fill="#0D0D0D" fill-opacity="1" d="M -0.571 297.109 L 119.509 297.109 C 239.589 297.109 479.748 297.109 719.807 261.46 C 959.864 225.812 1199.822 154.512 1319.8 118.863 L 1439.779 83.214 L 1440.453 320.876 L 1320.374 320.876 C 1200.294 320.876 960.134 320.876 719.975 320.876 C 479.815 320.876 239.656 320.876 119.576 320.876 L -0.504 320.876 L -0.571 297.109 Z" style=""/>
</svg>